<mxfile host="app.diagrams.net" modified="2021-05-05T17:37:43.294Z" agent="5.0 (Macintosh; Intel Mac OS X 10_13_6) AppleWebKit/605.1.15 (KHTML, like Gecko) Version/13.1.2 Safari/605.1.15" etag="O3IKjS0cCQlnEmy-qfo7" version="14.6.6" type="github">
  <diagram name="Page-1" id="03018318-947c-dd8e-b7a3-06fadd420f32">
    <mxGraphModel dx="965" dy="1445" grid="1" gridSize="10" guides="1" tooltips="1" connect="1" arrows="1" fold="1" page="1" pageScale="1" pageWidth="1100" pageHeight="850" background="#ffffff" math="0" shadow="0">
      <root>
        <mxCell id="0" />
        <mxCell id="1" parent="0" />
        <mxCell id="677b7b8949515195-1" value="" style="whiteSpace=wrap;html=1;rounded=0;shadow=0;labelBackgroundColor=none;strokeColor=#000000;strokeWidth=1;fillColor=none;fontFamily=Verdana;fontSize=12;fontColor=#000000;align=center;comic=1;" parent="1" vertex="1">
          <mxGeometry x="20" y="20" width="1060" height="810" as="geometry" />
        </mxCell>
        <mxCell id="677b7b8949515195-2" value="ВВ&amp;nbsp;" style="whiteSpace=wrap;html=1;rounded=0;shadow=0;labelBackgroundColor=none;strokeWidth=1;fontFamily=Verdana;fontSize=28;align=center;comic=1;" parent="1" vertex="1">
          <mxGeometry x="30" y="30" width="190" height="50" as="geometry" />
        </mxCell>
        <mxCell id="677b7b8949515195-3" value="Search" style="strokeWidth=1;shadow=0;dashed=0;align=center;html=1;shape=mxgraph.mockup.forms.searchBox;strokeColor=#999999;mainText=;strokeColor2=#008cff;fontColor=#666666;fontSize=17;align=left;spacingLeft=3;rounded=0;labelBackgroundColor=none;comic=1;" parent="1" vertex="1">
          <mxGeometry x="840" y="95" width="220" height="30" as="geometry" />
        </mxCell>
        <mxCell id="677b7b8949515195-4" value="Главная" style="text;html=1;points=[];align=left;verticalAlign=top;spacingTop=-4;fontSize=14;fontFamily=Verdana;" parent="1" vertex="1">
          <mxGeometry x="610" y="40" width="60" height="20" as="geometry" />
        </mxCell>
        <mxCell id="677b7b8949515195-5" value="Смены" style="text;html=1;points=[];align=left;verticalAlign=top;spacingTop=-4;fontSize=14;fontFamily=Verdana" parent="1" vertex="1">
          <mxGeometry x="690" y="40" width="60" height="20" as="geometry" />
        </mxCell>
        <mxCell id="677b7b8949515195-6" value="Оборудование" style="text;html=1;points=[];align=left;verticalAlign=top;spacingTop=-4;fontSize=14;fontFamily=Verdana" parent="1" vertex="1">
          <mxGeometry x="750" y="40" width="60" height="20" as="geometry" />
        </mxCell>
        <mxCell id="677b7b8949515195-7" value="Оснастка" style="text;html=1;points=[];align=left;verticalAlign=top;spacingTop=-4;fontSize=14;fontFamily=Verdana" parent="1" vertex="1">
          <mxGeometry x="880" y="40" width="60" height="20" as="geometry" />
        </mxCell>
        <mxCell id="677b7b8949515195-8" value="" style="whiteSpace=wrap;html=1;rounded=0;shadow=0;labelBackgroundColor=none;strokeWidth=1;fillColor=none;fontFamily=Verdana;fontSize=12;align=center;comic=1;" parent="1" vertex="1">
          <mxGeometry x="30" y="160" width="200" height="590" as="geometry" />
        </mxCell>
        <mxCell id="677b7b8949515195-9" value="" style="line;strokeWidth=1;html=1;rounded=0;shadow=0;labelBackgroundColor=none;fillColor=none;fontFamily=Verdana;fontSize=14;fontColor=#000000;align=center;comic=1;" parent="1" vertex="1">
          <mxGeometry x="20" y="140" width="1060" height="10" as="geometry" />
        </mxCell>
        <mxCell id="677b7b8949515195-10" value="" style="whiteSpace=wrap;html=1;rounded=0;shadow=0;labelBackgroundColor=none;strokeWidth=1;fillColor=none;fontFamily=Verdana;fontSize=12;align=center;comic=1;" parent="1" vertex="1">
          <mxGeometry x="30" y="85" width="1040" height="50" as="geometry" />
        </mxCell>
        <mxCell id="677b7b8949515195-11" value="План" style="text;html=1;points=[];align=left;verticalAlign=top;spacingTop=-4;fontSize=14;fontFamily=Verdana" parent="1" vertex="1">
          <mxGeometry x="50" y="100" width="60" height="20" as="geometry" />
        </mxCell>
        <mxCell id="677b7b8949515195-13" value="Характеристики" style="text;html=1;points=[];align=left;verticalAlign=top;spacingTop=-4;fontSize=14;fontFamily=Verdana" parent="1" vertex="1">
          <mxGeometry x="100" y="100" width="90" height="20" as="geometry" />
        </mxCell>
        <mxCell id="677b7b8949515195-15" value="&lt;div style=&quot;text-align: justify&quot;&gt;&lt;span&gt;Lorem ipsum dolor sit amet, consectetur adipisicing elit, sed do eiusmod tempor incididunt ut labore et dolore magna aliqua. Ut enim ad minim veniam, quis nostrud exercitation ullamco laboris nisi ut aliquip ex ea commodo consequat. Duis aute irure dolor in reprehenderit in volu&lt;/span&gt;&lt;/div&gt;" style="whiteSpace=wrap;html=1;rounded=0;shadow=0;labelBackgroundColor=none;strokeWidth=1;fillColor=none;fontFamily=Verdana;fontSize=12;align=center;verticalAlign=top;spacing=10;comic=1;" parent="1" vertex="1">
          <mxGeometry x="240" y="640" width="590" height="110" as="geometry" />
        </mxCell>
        <mxCell id="677b7b8949515195-25" value="" style="whiteSpace=wrap;html=1;rounded=0;shadow=0;labelBackgroundColor=none;strokeWidth=1;fillColor=none;fontFamily=Verdana;fontSize=12;align=center;comic=1;" parent="1" vertex="1">
          <mxGeometry x="840" y="292.5" width="240" height="325" as="geometry" />
        </mxCell>
        <mxCell id="677b7b8949515195-26" value="" style="whiteSpace=wrap;html=1;rounded=0;shadow=0;labelBackgroundColor=none;strokeWidth=1;fillColor=none;fontFamily=Verdana;fontSize=12;align=center;comic=1;" parent="1" vertex="1">
          <mxGeometry x="840" y="640" width="230" height="180" as="geometry" />
        </mxCell>
        <mxCell id="677b7b8949515195-27" value="План по моделям&lt;br&gt;&lt;font color=&quot;#ff8000&quot;&gt;Выполнено&lt;/font&gt;/нужно" style="text;html=1;points=[];align=left;verticalAlign=top;spacingTop=-4;fontSize=14;fontFamily=Verdana" parent="1" vertex="1">
          <mxGeometry x="40" y="180" width="170" height="20" as="geometry" />
        </mxCell>
        <mxCell id="677b7b8949515195-31" value="Section 7" style="text;html=1;points=[];align=left;verticalAlign=top;spacingTop=-4;fontSize=14;fontFamily=Verdana" parent="1" vertex="1">
          <mxGeometry x="40" y="464" width="170" height="20" as="geometry" />
        </mxCell>
        <mxCell id="677b7b8949515195-32" value="Section 8" style="text;html=1;points=[];align=left;verticalAlign=top;spacingTop=-4;fontSize=14;fontFamily=Verdana" parent="1" vertex="1">
          <mxGeometry x="40" y="500" width="170" height="20" as="geometry" />
        </mxCell>
        <mxCell id="677b7b8949515195-33" value="Section 9" style="text;html=1;points=[];align=left;verticalAlign=top;spacingTop=-4;fontSize=14;fontFamily=Verdana" parent="1" vertex="1">
          <mxGeometry x="40" y="536" width="170" height="20" as="geometry" />
        </mxCell>
        <mxCell id="677b7b8949515195-34" value="Section 10" style="text;html=1;points=[];align=left;verticalAlign=top;spacingTop=-4;fontSize=14;fontFamily=Verdana" parent="1" vertex="1">
          <mxGeometry x="40" y="571" width="170" height="20" as="geometry" />
        </mxCell>
        <mxCell id="677b7b8949515195-35" value="Section 11" style="text;html=1;points=[];align=left;verticalAlign=top;spacingTop=-4;fontSize=14;fontFamily=Verdana" parent="1" vertex="1">
          <mxGeometry x="40" y="607" width="170" height="20" as="geometry" />
        </mxCell>
        <mxCell id="677b7b8949515195-36" value="Section 12" style="text;html=1;points=[];align=left;verticalAlign=top;spacingTop=-4;fontSize=14;fontFamily=Verdana" parent="1" vertex="1">
          <mxGeometry x="40" y="643" width="170" height="20" as="geometry" />
        </mxCell>
        <mxCell id="677b7b8949515195-37" value="Section 13" style="text;html=1;points=[];align=left;verticalAlign=top;spacingTop=-4;fontSize=14;fontFamily=Verdana" parent="1" vertex="1">
          <mxGeometry x="40" y="679" width="170" height="20" as="geometry" />
        </mxCell>
        <mxCell id="677b7b8949515195-38" value="Section 14" style="text;html=1;points=[];align=left;verticalAlign=top;spacingTop=-4;fontSize=14;fontFamily=Verdana" parent="1" vertex="1">
          <mxGeometry x="40" y="714" width="170" height="20" as="geometry" />
        </mxCell>
        <mxCell id="677b7b8949515195-40" value="Section 6" style="text;html=1;points=[];align=left;verticalAlign=top;spacingTop=-4;fontSize=14;fontFamily=Verdana" parent="1" vertex="1">
          <mxGeometry x="40" y="429" width="170" height="20" as="geometry" />
        </mxCell>
        <mxCell id="677b7b8949515195-42" value="External Links" style="text;html=1;points=[];align=left;verticalAlign=top;spacingTop=-4;fontSize=14;fontFamily=Verdana" parent="1" vertex="1">
          <mxGeometry x="860" y="653" width="170" height="20" as="geometry" />
        </mxCell>
        <mxCell id="677b7b8949515195-44" value="Feature 1" style="text;html=1;points=[];align=left;verticalAlign=top;spacingTop=-4;fontSize=14;fontFamily=Verdana" parent="1" vertex="1">
          <mxGeometry x="860" y="265" width="170" height="20" as="geometry" />
        </mxCell>
        <mxCell id="677b7b8949515195-46" value="Feature 3" style="text;html=1;points=[];align=left;verticalAlign=top;spacingTop=-4;fontSize=14;fontFamily=Verdana" parent="1" vertex="1">
          <mxGeometry x="860" y="320" width="170" height="20" as="geometry" />
        </mxCell>
        <mxCell id="677b7b8949515195-47" value="Feature 4" style="text;html=1;points=[];align=left;verticalAlign=top;spacingTop=-4;fontSize=14;fontFamily=Verdana" parent="1" vertex="1">
          <mxGeometry x="860" y="355" width="170" height="20" as="geometry" />
        </mxCell>
        <mxCell id="677b7b8949515195-48" value="Feature 5" style="text;html=1;points=[];align=left;verticalAlign=top;spacingTop=-4;fontSize=14;fontFamily=Verdana" parent="1" vertex="1">
          <mxGeometry x="860" y="390" width="170" height="20" as="geometry" />
        </mxCell>
        <mxCell id="677b7b8949515195-49" value="Feature 6" style="text;html=1;points=[];align=left;verticalAlign=top;spacingTop=-4;fontSize=14;fontFamily=Verdana" parent="1" vertex="1">
          <mxGeometry x="860" y="425" width="170" height="20" as="geometry" />
        </mxCell>
        <mxCell id="YQkR4Uo7yY8lCMuE5dBn-2" value="Сервер" style="shape=image;verticalLabelPosition=bottom;verticalAlign=top;imageAspect=0;aspect=fixed;image=data:image/svg+xml,PHN2ZyB4bWxucz0iaHR0cDovL3d3dy53My5vcmcvMjAwMC9zdmciIHZlcnNpb249IjEiIHZpZXdCb3g9IjAgMCA0OCA0OCIgZW5hYmxlLWJhY2tncm91bmQ9Im5ldyAwIDAgNDggNDgiPiYjeGE7ICAgIDxjaXJjbGUgZmlsbD0iIzRDQUY1MCIgY3g9IjI0IiBjeT0iMjQiIHI9IjIxIi8+JiN4YTsgICAgPHBvbHlnb24gZmlsbD0iI0NDRkY5MCIgcG9pbnRzPSIzNC42LDE0LjYgMjEsMjguMiAxNS40LDIyLjYgMTIuNiwyNS40IDIxLDMzLjggMzcuNCwxNy40Ii8+JiN4YTs8L3N2Zz4=" vertex="1" parent="1">
          <mxGeometry x="50" y="760" width="18" height="18" as="geometry" />
        </mxCell>
        <mxCell id="YQkR4Uo7yY8lCMuE5dBn-3" value="&lt;div style=&quot;text-align: justify&quot;&gt;03 - May-2021 06-45 Авторизация мастера&lt;/div&gt;&lt;div style=&quot;text-align: justify&quot;&gt;03 - May-2021 06-46 Изменение&amp;nbsp;&lt;/div&gt;" style="whiteSpace=wrap;html=1;rounded=0;shadow=0;labelBackgroundColor=none;strokeWidth=1;fillColor=none;fontFamily=Verdana;fontSize=12;align=center;verticalAlign=top;spacing=10;comic=1;" vertex="1" parent="1">
          <mxGeometry x="100" y="760" width="730" height="60" as="geometry" />
        </mxCell>
        <mxCell id="YQkR4Uo7yY8lCMuE5dBn-5" value="Инструмент" style="text;html=1;points=[];align=left;verticalAlign=top;spacingTop=-4;fontSize=14;fontFamily=Verdana" vertex="1" parent="1">
          <mxGeometry x="970" y="40" width="60" height="20" as="geometry" />
        </mxCell>
        <mxCell id="YQkR4Uo7yY8lCMuE5dBn-8" value="" style="strokeWidth=1;shadow=0;dashed=0;align=center;html=1;shape=mxgraph.mockup.forms.rrect;rSize=5;strokeColor=#999999;fillColor=#ffffff;" vertex="1" parent="1">
          <mxGeometry x="840" y="160" width="210" height="120" as="geometry" />
        </mxCell>
        <mxCell id="YQkR4Uo7yY8lCMuE5dBn-9" value="Май 2021" style="strokeWidth=1;shadow=0;dashed=0;align=center;html=1;shape=mxgraph.mockup.forms.anchor;fontColor=#999999;" vertex="1" parent="YQkR4Uo7yY8lCMuE5dBn-8">
          <mxGeometry x="39.375" y="5.485714285714285" width="131.25" height="13.714285714285712" as="geometry" />
        </mxCell>
        <mxCell id="YQkR4Uo7yY8lCMuE5dBn-10" value="&lt;" style="strokeWidth=1;shadow=0;dashed=0;align=center;html=1;shape=mxgraph.mockup.forms.rrect;rSize=4;strokeColor=#999999;fontColor=#008cff;fontSize=19;fontStyle=1;" vertex="1" parent="YQkR4Uo7yY8lCMuE5dBn-8">
          <mxGeometry x="10.5" y="5.485714285714285" width="32.8125" height="13.714285714285712" as="geometry" />
        </mxCell>
        <mxCell id="YQkR4Uo7yY8lCMuE5dBn-11" value="&gt;" style="strokeWidth=1;shadow=0;dashed=0;align=center;html=1;shape=mxgraph.mockup.forms.rrect;rSize=4;strokeColor=#999999;fontColor=#008cff;fontSize=19;fontStyle=1;" vertex="1" parent="YQkR4Uo7yY8lCMuE5dBn-8">
          <mxGeometry x="166.6875" y="5.485714285714285" width="32.8125" height="13.714285714285712" as="geometry" />
        </mxCell>
        <mxCell id="YQkR4Uo7yY8lCMuE5dBn-12" value="Mo" style="strokeWidth=1;shadow=0;dashed=0;align=center;html=1;shape=mxgraph.mockup.forms.anchor;fontColor=#999999;" vertex="1" parent="YQkR4Uo7yY8lCMuE5dBn-8">
          <mxGeometry x="13.125" y="19.2" width="26.25" height="13.714285714285712" as="geometry" />
        </mxCell>
        <mxCell id="YQkR4Uo7yY8lCMuE5dBn-13" value="Tu" style="strokeWidth=1;shadow=0;dashed=0;align=center;html=1;shape=mxgraph.mockup.forms.anchor;fontColor=#999999;" vertex="1" parent="YQkR4Uo7yY8lCMuE5dBn-8">
          <mxGeometry x="39.375" y="19.2" width="26.25" height="13.714285714285712" as="geometry" />
        </mxCell>
        <mxCell id="YQkR4Uo7yY8lCMuE5dBn-14" value="We" style="strokeWidth=1;shadow=0;dashed=0;align=center;html=1;shape=mxgraph.mockup.forms.anchor;fontColor=#999999;" vertex="1" parent="YQkR4Uo7yY8lCMuE5dBn-8">
          <mxGeometry x="65.625" y="19.2" width="26.25" height="13.714285714285712" as="geometry" />
        </mxCell>
        <mxCell id="YQkR4Uo7yY8lCMuE5dBn-15" value="Th" style="strokeWidth=1;shadow=0;dashed=0;align=center;html=1;shape=mxgraph.mockup.forms.anchor;fontColor=#999999;" vertex="1" parent="YQkR4Uo7yY8lCMuE5dBn-8">
          <mxGeometry x="91.875" y="19.2" width="26.25" height="13.714285714285712" as="geometry" />
        </mxCell>
        <mxCell id="YQkR4Uo7yY8lCMuE5dBn-16" value="Fr" style="strokeWidth=1;shadow=0;dashed=0;align=center;html=1;shape=mxgraph.mockup.forms.anchor;fontColor=#999999;" vertex="1" parent="YQkR4Uo7yY8lCMuE5dBn-8">
          <mxGeometry x="118.12499999999999" y="19.2" width="26.25" height="13.714285714285712" as="geometry" />
        </mxCell>
        <mxCell id="YQkR4Uo7yY8lCMuE5dBn-17" value="Sa" style="strokeWidth=1;shadow=0;dashed=0;align=center;html=1;shape=mxgraph.mockup.forms.anchor;fontColor=#999999;" vertex="1" parent="YQkR4Uo7yY8lCMuE5dBn-8">
          <mxGeometry x="144.375" y="19.2" width="26.25" height="13.714285714285712" as="geometry" />
        </mxCell>
        <mxCell id="YQkR4Uo7yY8lCMuE5dBn-18" value="Su" style="strokeWidth=1;shadow=0;dashed=0;align=center;html=1;shape=mxgraph.mockup.forms.anchor;fontColor=#999999;" vertex="1" parent="YQkR4Uo7yY8lCMuE5dBn-8">
          <mxGeometry x="170.625" y="19.2" width="26.25" height="13.714285714285712" as="geometry" />
        </mxCell>
        <mxCell id="YQkR4Uo7yY8lCMuE5dBn-19" value="1" style="strokeWidth=1;shadow=0;dashed=0;align=center;html=1;shape=mxgraph.mockup.forms.rrect;rSize=0;strokeColor=#999999;fontColor=#999999;" vertex="1" parent="YQkR4Uo7yY8lCMuE5dBn-8">
          <mxGeometry x="13.125" y="32.91428571428571" width="26.25" height="13.714285714285712" as="geometry" />
        </mxCell>
        <mxCell id="YQkR4Uo7yY8lCMuE5dBn-20" value="2" style="strokeWidth=1;shadow=0;dashed=0;align=center;html=1;shape=mxgraph.mockup.forms.rrect;rSize=0;strokeColor=#999999;fontColor=#999999;" vertex="1" parent="YQkR4Uo7yY8lCMuE5dBn-8">
          <mxGeometry x="39.375" y="32.91428571428571" width="26.25" height="13.714285714285712" as="geometry" />
        </mxCell>
        <mxCell id="YQkR4Uo7yY8lCMuE5dBn-21" value="3" style="strokeWidth=1;shadow=0;dashed=0;align=center;html=1;shape=mxgraph.mockup.forms.rrect;rSize=0;strokeColor=#999999;fontColor=#999999;" vertex="1" parent="YQkR4Uo7yY8lCMuE5dBn-8">
          <mxGeometry x="65.625" y="32.91428571428571" width="26.25" height="13.714285714285712" as="geometry" />
        </mxCell>
        <mxCell id="YQkR4Uo7yY8lCMuE5dBn-22" value="4" style="strokeWidth=1;shadow=0;dashed=0;align=center;html=1;shape=mxgraph.mockup.forms.rrect;rSize=0;strokeColor=#999999;fontColor=#999999;" vertex="1" parent="YQkR4Uo7yY8lCMuE5dBn-8">
          <mxGeometry x="91.875" y="32.91428571428571" width="26.25" height="13.714285714285712" as="geometry" />
        </mxCell>
        <mxCell id="YQkR4Uo7yY8lCMuE5dBn-23" value="5" style="strokeWidth=1;shadow=0;dashed=0;align=center;html=1;shape=mxgraph.mockup.forms.rrect;rSize=0;strokeColor=#999999;fontColor=#999999;" vertex="1" parent="YQkR4Uo7yY8lCMuE5dBn-8">
          <mxGeometry x="118.12499999999999" y="32.91428571428571" width="26.25" height="13.714285714285712" as="geometry" />
        </mxCell>
        <mxCell id="YQkR4Uo7yY8lCMuE5dBn-24" value="6" style="strokeWidth=1;shadow=0;dashed=0;align=center;html=1;shape=mxgraph.mockup.forms.rrect;rSize=0;strokeColor=#999999;fontColor=#999999;" vertex="1" parent="YQkR4Uo7yY8lCMuE5dBn-8">
          <mxGeometry x="144.375" y="32.91428571428571" width="26.25" height="13.714285714285712" as="geometry" />
        </mxCell>
        <mxCell id="YQkR4Uo7yY8lCMuE5dBn-25" value="7" style="strokeWidth=1;shadow=0;dashed=0;align=center;html=1;shape=mxgraph.mockup.forms.rrect;rSize=0;strokeColor=#999999;fontColor=#999999;" vertex="1" parent="YQkR4Uo7yY8lCMuE5dBn-8">
          <mxGeometry x="170.625" y="32.91428571428571" width="26.25" height="13.714285714285712" as="geometry" />
        </mxCell>
        <mxCell id="YQkR4Uo7yY8lCMuE5dBn-26" value="8" style="strokeWidth=1;shadow=0;dashed=0;align=center;html=1;shape=mxgraph.mockup.forms.rrect;rSize=0;strokeColor=#999999;fontColor=#999999;" vertex="1" parent="YQkR4Uo7yY8lCMuE5dBn-8">
          <mxGeometry x="13.125" y="46.628571428571426" width="26.25" height="13.714285714285712" as="geometry" />
        </mxCell>
        <mxCell id="YQkR4Uo7yY8lCMuE5dBn-27" value="9" style="strokeWidth=1;shadow=0;dashed=0;align=center;html=1;shape=mxgraph.mockup.forms.rrect;rSize=0;strokeColor=#999999;fontColor=#999999;" vertex="1" parent="YQkR4Uo7yY8lCMuE5dBn-8">
          <mxGeometry x="39.375" y="46.628571428571426" width="26.25" height="13.714285714285712" as="geometry" />
        </mxCell>
        <mxCell id="YQkR4Uo7yY8lCMuE5dBn-28" value="10" style="strokeWidth=1;shadow=0;dashed=0;align=center;html=1;shape=mxgraph.mockup.forms.rrect;rSize=0;strokeColor=#999999;fontColor=#999999;" vertex="1" parent="YQkR4Uo7yY8lCMuE5dBn-8">
          <mxGeometry x="65.625" y="46.628571428571426" width="26.25" height="13.714285714285712" as="geometry" />
        </mxCell>
        <mxCell id="YQkR4Uo7yY8lCMuE5dBn-29" value="11" style="strokeWidth=1;shadow=0;dashed=0;align=center;html=1;shape=mxgraph.mockup.forms.rrect;rSize=0;strokeColor=#999999;fontColor=#999999;" vertex="1" parent="YQkR4Uo7yY8lCMuE5dBn-8">
          <mxGeometry x="91.875" y="46.628571428571426" width="26.25" height="13.714285714285712" as="geometry" />
        </mxCell>
        <mxCell id="YQkR4Uo7yY8lCMuE5dBn-30" value="12" style="strokeWidth=1;shadow=0;dashed=0;align=center;html=1;shape=mxgraph.mockup.forms.rrect;rSize=0;strokeColor=#999999;fontColor=#999999;" vertex="1" parent="YQkR4Uo7yY8lCMuE5dBn-8">
          <mxGeometry x="118.12499999999999" y="46.628571428571426" width="26.25" height="13.714285714285712" as="geometry" />
        </mxCell>
        <mxCell id="YQkR4Uo7yY8lCMuE5dBn-31" value="13" style="strokeWidth=1;shadow=0;dashed=0;align=center;html=1;shape=mxgraph.mockup.forms.rrect;rSize=0;strokeColor=#999999;fontColor=#999999;" vertex="1" parent="YQkR4Uo7yY8lCMuE5dBn-8">
          <mxGeometry x="144.375" y="46.628571428571426" width="26.25" height="13.714285714285712" as="geometry" />
        </mxCell>
        <mxCell id="YQkR4Uo7yY8lCMuE5dBn-32" value="14" style="strokeWidth=1;shadow=0;dashed=0;align=center;html=1;shape=mxgraph.mockup.forms.rrect;rSize=0;strokeColor=#999999;fontColor=#999999;" vertex="1" parent="YQkR4Uo7yY8lCMuE5dBn-8">
          <mxGeometry x="170.625" y="46.628571428571426" width="26.25" height="13.714285714285712" as="geometry" />
        </mxCell>
        <mxCell id="YQkR4Uo7yY8lCMuE5dBn-33" value="15" style="strokeWidth=1;shadow=0;dashed=0;align=center;html=1;shape=mxgraph.mockup.forms.rrect;rSize=0;strokeColor=#999999;fontColor=#999999;" vertex="1" parent="YQkR4Uo7yY8lCMuE5dBn-8">
          <mxGeometry x="13.125" y="60.34285714285714" width="26.25" height="13.714285714285712" as="geometry" />
        </mxCell>
        <mxCell id="YQkR4Uo7yY8lCMuE5dBn-34" value="16" style="strokeWidth=1;shadow=0;dashed=0;align=center;html=1;shape=mxgraph.mockup.forms.rrect;rSize=0;strokeColor=#999999;fontColor=#999999;" vertex="1" parent="YQkR4Uo7yY8lCMuE5dBn-8">
          <mxGeometry x="39.375" y="60.34285714285714" width="26.25" height="13.714285714285712" as="geometry" />
        </mxCell>
        <mxCell id="YQkR4Uo7yY8lCMuE5dBn-35" value="17" style="strokeWidth=1;shadow=0;dashed=0;align=center;html=1;shape=mxgraph.mockup.forms.rrect;rSize=0;strokeColor=#999999;fontColor=#999999;" vertex="1" parent="YQkR4Uo7yY8lCMuE5dBn-8">
          <mxGeometry x="65.625" y="60.34285714285714" width="26.25" height="13.714285714285712" as="geometry" />
        </mxCell>
        <mxCell id="YQkR4Uo7yY8lCMuE5dBn-36" value="18" style="strokeWidth=1;shadow=0;dashed=0;align=center;html=1;shape=mxgraph.mockup.forms.rrect;rSize=0;strokeColor=#999999;fontColor=#999999;" vertex="1" parent="YQkR4Uo7yY8lCMuE5dBn-8">
          <mxGeometry x="91.875" y="60.34285714285714" width="26.25" height="13.714285714285712" as="geometry" />
        </mxCell>
        <mxCell id="YQkR4Uo7yY8lCMuE5dBn-37" value="19" style="strokeWidth=1;shadow=0;dashed=0;align=center;html=1;shape=mxgraph.mockup.forms.rrect;rSize=0;strokeColor=#999999;fontColor=#999999;" vertex="1" parent="YQkR4Uo7yY8lCMuE5dBn-8">
          <mxGeometry x="118.12499999999999" y="60.34285714285714" width="26.25" height="13.714285714285712" as="geometry" />
        </mxCell>
        <mxCell id="YQkR4Uo7yY8lCMuE5dBn-38" value="20" style="strokeWidth=1;shadow=0;dashed=0;align=center;html=1;shape=mxgraph.mockup.forms.rrect;rSize=0;strokeColor=#999999;fontColor=#999999;" vertex="1" parent="YQkR4Uo7yY8lCMuE5dBn-8">
          <mxGeometry x="144.375" y="60.34285714285714" width="26.25" height="13.714285714285712" as="geometry" />
        </mxCell>
        <mxCell id="YQkR4Uo7yY8lCMuE5dBn-39" value="21" style="strokeWidth=1;shadow=0;dashed=0;align=center;html=1;shape=mxgraph.mockup.forms.rrect;rSize=0;strokeColor=#999999;fontColor=#999999;" vertex="1" parent="YQkR4Uo7yY8lCMuE5dBn-8">
          <mxGeometry x="170.625" y="60.34285714285714" width="26.25" height="13.714285714285712" as="geometry" />
        </mxCell>
        <mxCell id="YQkR4Uo7yY8lCMuE5dBn-40" value="22" style="strokeWidth=1;shadow=0;dashed=0;align=center;html=1;shape=mxgraph.mockup.forms.rrect;rSize=0;strokeColor=#999999;fontColor=#999999;" vertex="1" parent="YQkR4Uo7yY8lCMuE5dBn-8">
          <mxGeometry x="13.125" y="74.05714285714285" width="26.25" height="13.714285714285712" as="geometry" />
        </mxCell>
        <mxCell id="YQkR4Uo7yY8lCMuE5dBn-41" value="23" style="strokeWidth=1;shadow=0;dashed=0;align=center;html=1;shape=mxgraph.mockup.forms.rrect;rSize=0;strokeColor=#999999;fontColor=#999999;" vertex="1" parent="YQkR4Uo7yY8lCMuE5dBn-8">
          <mxGeometry x="39.375" y="74.05714285714285" width="26.25" height="13.714285714285712" as="geometry" />
        </mxCell>
        <mxCell id="YQkR4Uo7yY8lCMuE5dBn-42" value="25" style="strokeWidth=1;shadow=0;dashed=0;align=center;html=1;shape=mxgraph.mockup.forms.rrect;rSize=0;strokeColor=#999999;fontColor=#999999;" vertex="1" parent="YQkR4Uo7yY8lCMuE5dBn-8">
          <mxGeometry x="91.875" y="74.05714285714285" width="26.25" height="13.714285714285712" as="geometry" />
        </mxCell>
        <mxCell id="YQkR4Uo7yY8lCMuE5dBn-43" value="26" style="strokeWidth=1;shadow=0;dashed=0;align=center;html=1;shape=mxgraph.mockup.forms.rrect;rSize=0;strokeColor=#999999;fontColor=#999999;" vertex="1" parent="YQkR4Uo7yY8lCMuE5dBn-8">
          <mxGeometry x="118.12499999999999" y="74.05714285714285" width="26.25" height="13.714285714285712" as="geometry" />
        </mxCell>
        <mxCell id="YQkR4Uo7yY8lCMuE5dBn-44" value="27" style="strokeWidth=1;shadow=0;dashed=0;align=center;html=1;shape=mxgraph.mockup.forms.rrect;rSize=0;strokeColor=#999999;fontColor=#999999;" vertex="1" parent="YQkR4Uo7yY8lCMuE5dBn-8">
          <mxGeometry x="144.375" y="74.05714285714285" width="26.25" height="13.714285714285712" as="geometry" />
        </mxCell>
        <mxCell id="YQkR4Uo7yY8lCMuE5dBn-45" value="28" style="strokeWidth=1;shadow=0;dashed=0;align=center;html=1;shape=mxgraph.mockup.forms.rrect;rSize=0;strokeColor=#999999;fontColor=#999999;" vertex="1" parent="YQkR4Uo7yY8lCMuE5dBn-8">
          <mxGeometry x="170.625" y="74.05714285714285" width="26.25" height="13.714285714285712" as="geometry" />
        </mxCell>
        <mxCell id="YQkR4Uo7yY8lCMuE5dBn-46" value="29" style="strokeWidth=1;shadow=0;dashed=0;align=center;html=1;shape=mxgraph.mockup.forms.rrect;rSize=0;strokeColor=#999999;fontColor=#999999;" vertex="1" parent="YQkR4Uo7yY8lCMuE5dBn-8">
          <mxGeometry x="13.125" y="87.77142857142856" width="26.25" height="13.714285714285712" as="geometry" />
        </mxCell>
        <mxCell id="YQkR4Uo7yY8lCMuE5dBn-47" value="30" style="strokeWidth=1;shadow=0;dashed=0;align=center;html=1;shape=mxgraph.mockup.forms.rrect;rSize=0;strokeColor=#999999;fontColor=#999999;" vertex="1" parent="YQkR4Uo7yY8lCMuE5dBn-8">
          <mxGeometry x="39.375" y="87.77142857142856" width="26.25" height="13.714285714285712" as="geometry" />
        </mxCell>
        <mxCell id="YQkR4Uo7yY8lCMuE5dBn-48" value="31" style="strokeWidth=1;shadow=0;dashed=0;align=center;html=1;shape=mxgraph.mockup.forms.rrect;rSize=0;strokeColor=#999999;fontColor=#999999;" vertex="1" parent="YQkR4Uo7yY8lCMuE5dBn-8">
          <mxGeometry x="65.625" y="87.77142857142856" width="26.25" height="13.714285714285712" as="geometry" />
        </mxCell>
        <mxCell id="YQkR4Uo7yY8lCMuE5dBn-49" value="1" style="strokeWidth=1;shadow=0;dashed=0;align=center;html=1;shape=mxgraph.mockup.forms.rrect;rSize=0;strokeColor=#999999;fontColor=#999999;fillColor=#ddeeff;" vertex="1" parent="YQkR4Uo7yY8lCMuE5dBn-8">
          <mxGeometry x="91.875" y="87.77142857142856" width="26.25" height="13.714285714285712" as="geometry" />
        </mxCell>
        <mxCell id="YQkR4Uo7yY8lCMuE5dBn-50" value="2" style="strokeWidth=1;shadow=0;dashed=0;align=center;html=1;shape=mxgraph.mockup.forms.rrect;rSize=0;strokeColor=#999999;fontColor=#999999;fillColor=#ddeeff;" vertex="1" parent="YQkR4Uo7yY8lCMuE5dBn-8">
          <mxGeometry x="118.12499999999999" y="87.77142857142856" width="26.25" height="13.714285714285712" as="geometry" />
        </mxCell>
        <mxCell id="YQkR4Uo7yY8lCMuE5dBn-51" value="3" style="strokeWidth=1;shadow=0;dashed=0;align=center;html=1;shape=mxgraph.mockup.forms.rrect;rSize=0;strokeColor=#999999;fontColor=#999999;fillColor=#ddeeff;" vertex="1" parent="YQkR4Uo7yY8lCMuE5dBn-8">
          <mxGeometry x="144.375" y="87.77142857142856" width="26.25" height="13.714285714285712" as="geometry" />
        </mxCell>
        <mxCell id="YQkR4Uo7yY8lCMuE5dBn-52" value="4" style="strokeWidth=1;shadow=0;dashed=0;align=center;html=1;shape=mxgraph.mockup.forms.rrect;rSize=0;strokeColor=#999999;fontColor=#999999;fillColor=#ddeeff;" vertex="1" parent="YQkR4Uo7yY8lCMuE5dBn-8">
          <mxGeometry x="170.625" y="87.77142857142856" width="26.25" height="13.714285714285712" as="geometry" />
        </mxCell>
        <mxCell id="YQkR4Uo7yY8lCMuE5dBn-53" value="5" style="strokeWidth=1;shadow=0;dashed=0;align=center;html=1;shape=mxgraph.mockup.forms.rrect;rSize=0;strokeColor=#999999;fontColor=#999999;fillColor=#ddeeff;" vertex="1" parent="YQkR4Uo7yY8lCMuE5dBn-8">
          <mxGeometry x="13.125" y="101.48571428571428" width="26.25" height="13.714285714285712" as="geometry" />
        </mxCell>
        <mxCell id="YQkR4Uo7yY8lCMuE5dBn-54" value="6" style="strokeWidth=1;shadow=0;dashed=0;align=center;html=1;shape=mxgraph.mockup.forms.rrect;rSize=0;strokeColor=#999999;fontColor=#999999;fillColor=#ddeeff;" vertex="1" parent="YQkR4Uo7yY8lCMuE5dBn-8">
          <mxGeometry x="39.375" y="101.48571428571428" width="26.25" height="13.714285714285712" as="geometry" />
        </mxCell>
        <mxCell id="YQkR4Uo7yY8lCMuE5dBn-55" value="7" style="strokeWidth=1;shadow=0;dashed=0;align=center;html=1;shape=mxgraph.mockup.forms.rrect;rSize=0;strokeColor=#999999;fontColor=#999999;fillColor=#ddeeff;" vertex="1" parent="YQkR4Uo7yY8lCMuE5dBn-8">
          <mxGeometry x="65.625" y="101.48571428571428" width="26.25" height="13.714285714285712" as="geometry" />
        </mxCell>
        <mxCell id="YQkR4Uo7yY8lCMuE5dBn-56" value="8" style="strokeWidth=1;shadow=0;dashed=0;align=center;html=1;shape=mxgraph.mockup.forms.rrect;rSize=0;strokeColor=#999999;fontColor=#999999;fillColor=#ddeeff;" vertex="1" parent="YQkR4Uo7yY8lCMuE5dBn-8">
          <mxGeometry x="91.875" y="101.48571428571428" width="26.25" height="13.714285714285712" as="geometry" />
        </mxCell>
        <mxCell id="YQkR4Uo7yY8lCMuE5dBn-57" value="9" style="strokeWidth=1;shadow=0;dashed=0;align=center;html=1;shape=mxgraph.mockup.forms.rrect;rSize=0;strokeColor=#999999;fontColor=#999999;fillColor=#ddeeff;" vertex="1" parent="YQkR4Uo7yY8lCMuE5dBn-8">
          <mxGeometry x="118.12499999999999" y="101.48571428571428" width="26.25" height="13.714285714285712" as="geometry" />
        </mxCell>
        <mxCell id="YQkR4Uo7yY8lCMuE5dBn-58" value="10" style="strokeWidth=1;shadow=0;dashed=0;align=center;html=1;shape=mxgraph.mockup.forms.rrect;rSize=0;strokeColor=#999999;fontColor=#999999;fillColor=#ddeeff;" vertex="1" parent="YQkR4Uo7yY8lCMuE5dBn-8">
          <mxGeometry x="144.375" y="101.48571428571428" width="26.25" height="13.714285714285712" as="geometry" />
        </mxCell>
        <mxCell id="YQkR4Uo7yY8lCMuE5dBn-59" value="11" style="strokeWidth=1;shadow=0;dashed=0;align=center;html=1;shape=mxgraph.mockup.forms.rrect;rSize=0;strokeColor=#999999;fontColor=#999999;fillColor=#ddeeff;" vertex="1" parent="YQkR4Uo7yY8lCMuE5dBn-8">
          <mxGeometry x="170.625" y="101.48571428571428" width="26.25" height="13.714285714285712" as="geometry" />
        </mxCell>
        <mxCell id="YQkR4Uo7yY8lCMuE5dBn-60" value="24" style="strokeWidth=1;shadow=0;dashed=0;align=center;html=1;shape=mxgraph.mockup.forms.rrect;rSize=0;strokeColor=#ff0000;fontColor=#ffffff;strokeWidth=2;fillColor=#008cff;" vertex="1" parent="YQkR4Uo7yY8lCMuE5dBn-8">
          <mxGeometry x="65.625" y="74.05714285714285" width="26.25" height="13.714285714285712" as="geometry" />
        </mxCell>
        <mxCell id="YQkR4Uo7yY8lCMuE5dBn-75" value="&lt;table border=&quot;1&quot; width=&quot;100%&quot; cellpadding=&quot;4&quot; style=&quot;width: 100% ; height: 100% ; border-collapse: collapse&quot;&gt;&lt;tbody&gt;&lt;tr style=&quot;background-color: #a7c942 ; color: #ffffff ; border: 1px solid #98bf21&quot;&gt;&lt;th align=&quot;left&quot;&gt;Инструмент&lt;/th&gt;&lt;th align=&quot;left&quot;&gt;Операция&lt;/th&gt;&lt;th align=&quot;left&quot;&gt;На складе&lt;/th&gt;&lt;td style=&quot;text-align: center&quot;&gt;Применим на&lt;br&gt;&amp;nbsp;линях&lt;/td&gt;&lt;td&gt;CNC&lt;/td&gt;&lt;/tr&gt;&lt;tr style=&quot;border: 1px solid #98bf21&quot;&gt;&lt;td&gt;И1&lt;/td&gt;&lt;td&gt;О84&lt;/td&gt;&lt;td&gt;Да&lt;/td&gt;&lt;td&gt;1,3&lt;/td&gt;&lt;td&gt;&lt;br&gt;&lt;/td&gt;&lt;/tr&gt;&lt;tr style=&quot;background-color: #eaf2d3 ; border: 1px solid #98bf21&quot;&gt;&lt;td&gt;И2&lt;/td&gt;&lt;td&gt;О5&lt;/td&gt;&lt;td&gt;Да&lt;/td&gt;&lt;td&gt;2,4&lt;/td&gt;&lt;td&gt;&lt;br&gt;&lt;/td&gt;&lt;/tr&gt;&lt;tr style=&quot;border: 1px solid #98bf21&quot;&gt;&lt;td&gt;И7&lt;/td&gt;&lt;td&gt;Щ8&lt;/td&gt;&lt;td&gt;Нет&lt;/td&gt;&lt;td&gt;1,4&lt;/td&gt;&lt;td&gt;&lt;br&gt;&lt;/td&gt;&lt;/tr&gt;&lt;tr style=&quot;background-color: #eaf2d3 ; border: 1px solid #98bf21&quot;&gt;&lt;td&gt;И10&lt;/td&gt;&lt;td&gt;М11&lt;/td&gt;&lt;td&gt;Да&lt;/td&gt;&lt;td&gt;2,3&lt;/td&gt;&lt;td&gt;&lt;br&gt;&lt;/td&gt;&lt;/tr&gt;&lt;/tbody&gt;&lt;/table&gt;" style="text;html=1;strokeColor=#c0c0c0;fillColor=#ffffff;overflow=fill;rounded=0;" vertex="1" parent="1">
          <mxGeometry x="399" y="-170" width="461" height="160" as="geometry" />
        </mxCell>
        <mxCell id="YQkR4Uo7yY8lCMuE5dBn-90" value="" style="endArrow=none;html=1;fontColor=#009900;exitX=0.893;exitY=0;exitDx=0;exitDy=0;exitPerimeter=0;" edge="1" parent="1" source="YQkR4Uo7yY8lCMuE5dBn-260" target="YQkR4Uo7yY8lCMuE5dBn-75">
          <mxGeometry width="50" height="50" relative="1" as="geometry">
            <mxPoint x="120" y="210" as="sourcePoint" />
            <mxPoint x="170" y="160" as="targetPoint" />
          </mxGeometry>
        </mxCell>
        <mxCell id="YQkR4Uo7yY8lCMuE5dBn-91" value="" style="shape=table;html=1;whiteSpace=wrap;startSize=0;container=1;collapsible=0;childLayout=tableLayout;fontColor=#009900;" vertex="1" parent="1">
          <mxGeometry x="210" y="-70" width="180" height="60" as="geometry" />
        </mxCell>
        <mxCell id="YQkR4Uo7yY8lCMuE5dBn-92" value="" style="shape=partialRectangle;html=1;whiteSpace=wrap;collapsible=0;dropTarget=0;pointerEvents=0;fillColor=none;top=0;left=0;bottom=0;right=0;points=[[0,0.5],[1,0.5]];portConstraint=eastwest;" vertex="1" parent="YQkR4Uo7yY8lCMuE5dBn-91">
          <mxGeometry width="180" height="20" as="geometry" />
        </mxCell>
        <mxCell id="YQkR4Uo7yY8lCMuE5dBn-93" value="Сложная" style="shape=partialRectangle;html=1;whiteSpace=wrap;connectable=0;fillColor=none;top=0;left=0;bottom=0;right=0;overflow=hidden;" vertex="1" parent="YQkR4Uo7yY8lCMuE5dBn-92">
          <mxGeometry width="60" height="20" as="geometry" />
        </mxCell>
        <mxCell id="YQkR4Uo7yY8lCMuE5dBn-94" value="Простая" style="shape=partialRectangle;html=1;whiteSpace=wrap;connectable=0;fillColor=none;top=0;left=0;bottom=0;right=0;overflow=hidden;" vertex="1" parent="YQkR4Uo7yY8lCMuE5dBn-92">
          <mxGeometry x="60" width="60" height="20" as="geometry" />
        </mxCell>
        <mxCell id="YQkR4Uo7yY8lCMuE5dBn-95" value="Средняя" style="shape=partialRectangle;html=1;whiteSpace=wrap;connectable=0;fillColor=none;top=0;left=0;bottom=0;right=0;overflow=hidden;" vertex="1" parent="YQkR4Uo7yY8lCMuE5dBn-92">
          <mxGeometry x="120" width="60" height="20" as="geometry" />
        </mxCell>
        <mxCell id="YQkR4Uo7yY8lCMuE5dBn-96" value="" style="shape=partialRectangle;html=1;whiteSpace=wrap;collapsible=0;dropTarget=0;pointerEvents=0;fillColor=none;top=0;left=0;bottom=0;right=0;points=[[0,0.5],[1,0.5]];portConstraint=eastwest;" vertex="1" parent="YQkR4Uo7yY8lCMuE5dBn-91">
          <mxGeometry y="20" width="180" height="40" as="geometry" />
        </mxCell>
        <mxCell id="YQkR4Uo7yY8lCMuE5dBn-97" value="Л1" style="shape=partialRectangle;html=1;whiteSpace=wrap;connectable=0;fillColor=none;top=0;left=0;bottom=0;right=0;overflow=hidden;" vertex="1" parent="YQkR4Uo7yY8lCMuE5dBn-96">
          <mxGeometry width="60" height="40" as="geometry" />
        </mxCell>
        <mxCell id="YQkR4Uo7yY8lCMuE5dBn-98" value="Л2" style="shape=partialRectangle;html=1;whiteSpace=wrap;connectable=0;fillColor=none;top=0;left=0;bottom=0;right=0;overflow=hidden;" vertex="1" parent="YQkR4Uo7yY8lCMuE5dBn-96">
          <mxGeometry x="60" width="60" height="40" as="geometry" />
        </mxCell>
        <mxCell id="YQkR4Uo7yY8lCMuE5dBn-99" value="Л3" style="shape=partialRectangle;html=1;whiteSpace=wrap;connectable=0;fillColor=none;top=0;left=0;bottom=0;right=0;overflow=hidden;" vertex="1" parent="YQkR4Uo7yY8lCMuE5dBn-96">
          <mxGeometry x="120" width="60" height="40" as="geometry" />
        </mxCell>
        <mxCell id="YQkR4Uo7yY8lCMuE5dBn-104" value="" style="endArrow=none;html=1;fontColor=#009900;" edge="1" parent="1" source="677b7b8949515195-13" target="YQkR4Uo7yY8lCMuE5dBn-92">
          <mxGeometry width="50" height="50" relative="1" as="geometry">
            <mxPoint x="310" y="110" as="sourcePoint" />
            <mxPoint x="340" y="110" as="targetPoint" />
          </mxGeometry>
        </mxCell>
        <mxCell id="YQkR4Uo7yY8lCMuE5dBn-105" value="Комплектность смен, возможность работы на линиях" style="shape=table;childLayout=tableLayout;rowLines=0;columnLines=0;startSize=40;html=1;whiteSpace=wrap;collapsible=0;recursiveResize=0;expand=0;pointerEvents=0;fontStyle=1;align=center;fontColor=#009900;" vertex="1" parent="1">
          <mxGeometry x="390" y="150" width="427" height="160" as="geometry" />
        </mxCell>
        <mxCell id="YQkR4Uo7yY8lCMuE5dBn-119" style="swimlane;horizontal=0;points=[[0,0.5],[1,0.5]];portConstraint=eastwest;startSize=40;html=1;whiteSpace=wrap;collapsible=0;recursiveResize=0;expand=0;pointerEvents=0;fontStyle=1" vertex="1" parent="YQkR4Uo7yY8lCMuE5dBn-105">
          <mxGeometry y="40" width="427" height="40" as="geometry" />
        </mxCell>
        <mxCell id="YQkR4Uo7yY8lCMuE5dBn-120" value="Петров" style="swimlane;connectable=0;startSize=40;html=1;whiteSpace=wrap;collapsible=0;recursiveResize=0;expand=0;pointerEvents=0;fillColor=#CCCCCC;" vertex="1" parent="YQkR4Uo7yY8lCMuE5dBn-119">
          <mxGeometry x="40" width="97" height="40" as="geometry" />
        </mxCell>
        <mxCell id="YQkR4Uo7yY8lCMuE5dBn-149" value="Сидоров" style="swimlane;connectable=0;startSize=40;html=1;whiteSpace=wrap;collapsible=0;recursiveResize=0;expand=0;pointerEvents=0;" vertex="1" parent="YQkR4Uo7yY8lCMuE5dBn-119">
          <mxGeometry x="137" width="97" height="40" as="geometry" />
        </mxCell>
        <mxCell id="YQkR4Uo7yY8lCMuE5dBn-121" value="Иванов" style="swimlane;connectable=0;startSize=40;html=1;whiteSpace=wrap;collapsible=0;recursiveResize=0;expand=0;pointerEvents=0;" vertex="1" parent="YQkR4Uo7yY8lCMuE5dBn-119">
          <mxGeometry x="234" width="96" height="40" as="geometry" />
        </mxCell>
        <mxCell id="YQkR4Uo7yY8lCMuE5dBn-122" value="Васечкин" style="swimlane;connectable=0;startSize=40;html=1;whiteSpace=wrap;collapsible=0;recursiveResize=0;expand=0;pointerEvents=0;" vertex="1" parent="YQkR4Uo7yY8lCMuE5dBn-119">
          <mxGeometry x="330" width="97" height="40" as="geometry" />
        </mxCell>
        <mxCell id="YQkR4Uo7yY8lCMuE5dBn-154" value="СМ1" style="swimlane;horizontal=0;points=[[0,0.5],[1,0.5]];portConstraint=eastwest;startSize=40;html=1;whiteSpace=wrap;collapsible=0;recursiveResize=0;expand=0;pointerEvents=0;fontStyle=1" vertex="1" parent="YQkR4Uo7yY8lCMuE5dBn-105">
          <mxGeometry y="80" width="427" height="40" as="geometry" />
        </mxCell>
        <mxCell id="YQkR4Uo7yY8lCMuE5dBn-155" value="1,2,4" style="swimlane;connectable=0;startSize=40;html=1;whiteSpace=wrap;collapsible=0;recursiveResize=0;expand=0;pointerEvents=0;flipH=0;fillColor=#CCCCCC;" vertex="1" parent="YQkR4Uo7yY8lCMuE5dBn-154">
          <mxGeometry x="40" width="97" height="40" as="geometry" />
        </mxCell>
        <mxCell id="YQkR4Uo7yY8lCMuE5dBn-156" style="swimlane;connectable=0;startSize=40;html=1;whiteSpace=wrap;collapsible=0;recursiveResize=0;expand=0;pointerEvents=0;" vertex="1" parent="YQkR4Uo7yY8lCMuE5dBn-154">
          <mxGeometry x="137" width="97" height="40" as="geometry" />
        </mxCell>
        <mxCell id="YQkR4Uo7yY8lCMuE5dBn-157" style="swimlane;connectable=0;startSize=40;html=1;whiteSpace=wrap;collapsible=0;recursiveResize=0;expand=0;pointerEvents=0;" vertex="1" parent="YQkR4Uo7yY8lCMuE5dBn-154">
          <mxGeometry x="234" width="96" height="40" as="geometry" />
        </mxCell>
        <mxCell id="YQkR4Uo7yY8lCMuE5dBn-158" value="3" style="swimlane;connectable=0;startSize=40;html=1;whiteSpace=wrap;collapsible=0;recursiveResize=0;expand=0;pointerEvents=0;" vertex="1" parent="YQkR4Uo7yY8lCMuE5dBn-154">
          <mxGeometry x="330" width="97" height="40" as="geometry" />
        </mxCell>
        <mxCell id="YQkR4Uo7yY8lCMuE5dBn-106" value="СМ2" style="swimlane;horizontal=0;points=[[0,0.5],[1,0.5]];portConstraint=eastwest;startSize=40;html=1;whiteSpace=wrap;collapsible=0;recursiveResize=0;expand=0;pointerEvents=0;fontStyle=1" vertex="1" parent="YQkR4Uo7yY8lCMuE5dBn-105">
          <mxGeometry y="120" width="427" height="40" as="geometry" />
        </mxCell>
        <mxCell id="YQkR4Uo7yY8lCMuE5dBn-107" value="" style="swimlane;connectable=0;startSize=40;html=1;whiteSpace=wrap;collapsible=0;recursiveResize=0;expand=0;pointerEvents=0;fillColor=#CCCCCC;" vertex="1" parent="YQkR4Uo7yY8lCMuE5dBn-106">
          <mxGeometry x="40" width="97" height="40" as="geometry" />
        </mxCell>
        <mxCell id="YQkR4Uo7yY8lCMuE5dBn-150" value="1,2,3" style="swimlane;connectable=0;startSize=40;html=1;whiteSpace=wrap;collapsible=0;recursiveResize=0;expand=0;pointerEvents=0;" vertex="1" parent="YQkR4Uo7yY8lCMuE5dBn-106">
          <mxGeometry x="137" width="97" height="40" as="geometry" />
        </mxCell>
        <mxCell id="YQkR4Uo7yY8lCMuE5dBn-108" value="2,4" style="swimlane;connectable=0;startSize=40;html=1;whiteSpace=wrap;collapsible=0;recursiveResize=0;expand=0;pointerEvents=0;" vertex="1" parent="YQkR4Uo7yY8lCMuE5dBn-106">
          <mxGeometry x="234" width="96" height="40" as="geometry" />
        </mxCell>
        <mxCell id="YQkR4Uo7yY8lCMuE5dBn-109" value="" style="swimlane;connectable=0;startSize=40;html=1;whiteSpace=wrap;collapsible=0;recursiveResize=0;expand=0;pointerEvents=0;" vertex="1" parent="YQkR4Uo7yY8lCMuE5dBn-106">
          <mxGeometry x="330" width="97" height="40" as="geometry" />
        </mxCell>
        <mxCell id="YQkR4Uo7yY8lCMuE5dBn-118" value="" style="endArrow=none;html=1;fontColor=#009900;entryX=0.367;entryY=1.15;entryDx=0;entryDy=0;entryPerimeter=0;" edge="1" parent="1" source="YQkR4Uo7yY8lCMuE5dBn-105" target="677b7b8949515195-5">
          <mxGeometry width="50" height="50" relative="1" as="geometry">
            <mxPoint x="670" y="100" as="sourcePoint" />
            <mxPoint x="720" y="50" as="targetPoint" />
          </mxGeometry>
        </mxCell>
        <mxCell id="YQkR4Uo7yY8lCMuE5dBn-163" value="" style="shape=image;verticalLabelPosition=bottom;verticalAlign=top;imageAspect=0;aspect=fixed;image=data:image/svg+xml,PHN2ZyB4bWxucz0iaHR0cDovL3d3dy53My5vcmcvMjAwMC9zdmciIHZlcnNpb249IjEiIHZpZXdCb3g9IjAgMCA0OCA0OCIgZW5hYmxlLWJhY2tncm91bmQ9Im5ldyAwIDAgNDggNDgiPiYjeGE7ICAgIDxnIGZpbGw9IiMxNTY1QzAiPiYjeGE7ICAgICAgICA8cG9seWdvbiBwb2ludHM9IjI0LDM3LjEgMTMsMjQgMzUsMjQiLz4mI3hhOyAgICAgICAgPHJlY3QgeD0iMjAiIHk9IjQiIHdpZHRoPSI4IiBoZWlnaHQ9IjQiLz4mI3hhOyAgICAgICAgPHJlY3QgeD0iMjAiIHk9IjEwIiB3aWR0aD0iOCIgaGVpZ2h0PSI0Ii8+JiN4YTsgICAgICAgIDxyZWN0IHg9IjIwIiB5PSIxNiIgd2lkdGg9IjgiIGhlaWdodD0iMTEiLz4mI3hhOyAgICAgICAgPHJlY3QgeD0iNiIgeT0iNDAiIHdpZHRoPSIzNiIgaGVpZ2h0PSI0Ii8+JiN4YTsgICAgPC9nPiYjeGE7PC9zdmc+;rounded=0;fontColor=#009900;" vertex="1" parent="1">
          <mxGeometry x="817" y="-38" width="28" height="28" as="geometry" />
        </mxCell>
        <mxCell id="YQkR4Uo7yY8lCMuE5dBn-164" value="" style="shape=image;verticalLabelPosition=bottom;verticalAlign=top;imageAspect=0;aspect=fixed;image=data:image/svg+xml,PHN2ZyB4bWxucz0iaHR0cDovL3d3dy53My5vcmcvMjAwMC9zdmciIHZlcnNpb249IjEiIHZpZXdCb3g9IjAgMCA0OCA0OCIgZW5hYmxlLWJhY2tncm91bmQ9Im5ldyAwIDAgNDggNDgiPiYjeGE7ICAgIDxnIGZpbGw9IiMxNTY1QzAiPiYjeGE7ICAgICAgICA8cG9seWdvbiBwb2ludHM9IjI0LDM3LjEgMTMsMjQgMzUsMjQiLz4mI3hhOyAgICAgICAgPHJlY3QgeD0iMjAiIHk9IjQiIHdpZHRoPSI4IiBoZWlnaHQ9IjQiLz4mI3hhOyAgICAgICAgPHJlY3QgeD0iMjAiIHk9IjEwIiB3aWR0aD0iOCIgaGVpZ2h0PSI0Ii8+JiN4YTsgICAgICAgIDxyZWN0IHg9IjIwIiB5PSIxNiIgd2lkdGg9IjgiIGhlaWdodD0iMTEiLz4mI3hhOyAgICAgICAgPHJlY3QgeD0iNiIgeT0iNDAiIHdpZHRoPSIzNiIgaGVpZ2h0PSI0Ii8+JiN4YTsgICAgPC9nPiYjeGE7PC9zdmc+;rounded=0;fontColor=#009900;" vertex="1" parent="1">
          <mxGeometry x="817" y="-66" width="28" height="28" as="geometry" />
        </mxCell>
        <mxCell id="YQkR4Uo7yY8lCMuE5dBn-165" value="" style="shape=image;verticalLabelPosition=bottom;verticalAlign=top;imageAspect=0;aspect=fixed;image=data:image/svg+xml,PHN2ZyB4bWxucz0iaHR0cDovL3d3dy53My5vcmcvMjAwMC9zdmciIHZlcnNpb249IjEiIHZpZXdCb3g9IjAgMCA0OCA0OCIgZW5hYmxlLWJhY2tncm91bmQ9Im5ldyAwIDAgNDggNDgiPiYjeGE7ICAgIDxnIGZpbGw9IiMxNTY1QzAiPiYjeGE7ICAgICAgICA8cG9seWdvbiBwb2ludHM9IjI0LDM3LjEgMTMsMjQgMzUsMjQiLz4mI3hhOyAgICAgICAgPHJlY3QgeD0iMjAiIHk9IjQiIHdpZHRoPSI4IiBoZWlnaHQ9IjQiLz4mI3hhOyAgICAgICAgPHJlY3QgeD0iMjAiIHk9IjEwIiB3aWR0aD0iOCIgaGVpZ2h0PSI0Ii8+JiN4YTsgICAgICAgIDxyZWN0IHg9IjIwIiB5PSIxNiIgd2lkdGg9IjgiIGhlaWdodD0iMTEiLz4mI3hhOyAgICAgICAgPHJlY3QgeD0iNiIgeT0iNDAiIHdpZHRoPSIzNiIgaGVpZ2h0PSI0Ii8+JiN4YTsgICAgPC9nPiYjeGE7PC9zdmc+;rounded=0;fontColor=#009900;" vertex="1" parent="1">
          <mxGeometry x="817" y="-94" width="28" height="28" as="geometry" />
        </mxCell>
        <mxCell id="YQkR4Uo7yY8lCMuE5dBn-166" value="" style="shape=image;verticalLabelPosition=bottom;verticalAlign=top;imageAspect=0;aspect=fixed;image=data:image/svg+xml,PHN2ZyB4bWxucz0iaHR0cDovL3d3dy53My5vcmcvMjAwMC9zdmciIHZlcnNpb249IjEiIHZpZXdCb3g9IjAgMCA0OCA0OCIgZW5hYmxlLWJhY2tncm91bmQ9Im5ldyAwIDAgNDggNDgiPiYjeGE7ICAgIDxnIGZpbGw9IiMxNTY1QzAiPiYjeGE7ICAgICAgICA8cG9seWdvbiBwb2ludHM9IjI0LDM3LjEgMTMsMjQgMzUsMjQiLz4mI3hhOyAgICAgICAgPHJlY3QgeD0iMjAiIHk9IjQiIHdpZHRoPSI4IiBoZWlnaHQ9IjQiLz4mI3hhOyAgICAgICAgPHJlY3QgeD0iMjAiIHk9IjEwIiB3aWR0aD0iOCIgaGVpZ2h0PSI0Ii8+JiN4YTsgICAgICAgIDxyZWN0IHg9IjIwIiB5PSIxNiIgd2lkdGg9IjgiIGhlaWdodD0iMTEiLz4mI3hhOyAgICAgICAgPHJlY3QgeD0iNiIgeT0iNDAiIHdpZHRoPSIzNiIgaGVpZ2h0PSI0Ii8+JiN4YTsgICAgPC9nPiYjeGE7PC9zdmc+;rounded=0;fontColor=#009900;" vertex="1" parent="1">
          <mxGeometry x="817" y="-122" width="28" height="28" as="geometry" />
        </mxCell>
        <mxCell id="YQkR4Uo7yY8lCMuE5dBn-167" value="Склад" style="text;html=1;points=[];align=left;verticalAlign=top;spacingTop=-4;fontSize=14;fontFamily=Verdana" vertex="1" parent="1">
          <mxGeometry x="230" y="100" width="60" height="20" as="geometry" />
        </mxCell>
        <mxCell id="YQkR4Uo7yY8lCMuE5dBn-171" value="" style="shape=table;html=1;whiteSpace=wrap;startSize=0;container=1;collapsible=0;childLayout=tableLayout;rounded=0;fontColor=#009900;" vertex="1" parent="1">
          <mxGeometry x="240" y="491.5" width="590" height="126" as="geometry" />
        </mxCell>
        <mxCell id="YQkR4Uo7yY8lCMuE5dBn-172" value="" style="shape=partialRectangle;html=1;whiteSpace=wrap;collapsible=0;dropTarget=0;pointerEvents=0;fillColor=none;top=0;left=0;bottom=0;right=0;points=[[0,0.5],[1,0.5]];portConstraint=eastwest;" vertex="1" parent="YQkR4Uo7yY8lCMuE5dBn-171">
          <mxGeometry width="590" height="25" as="geometry" />
        </mxCell>
        <mxCell id="YQkR4Uo7yY8lCMuE5dBn-173" value="24" style="shape=partialRectangle;html=1;whiteSpace=wrap;connectable=0;fillColor=none;top=0;left=0;bottom=0;right=0;overflow=hidden;" vertex="1" parent="YQkR4Uo7yY8lCMuE5dBn-172">
          <mxGeometry width="59" height="25" as="geometry" />
        </mxCell>
        <mxCell id="YQkR4Uo7yY8lCMuE5dBn-174" value="25" style="shape=partialRectangle;html=1;whiteSpace=wrap;connectable=0;fillColor=none;top=0;left=0;bottom=0;right=0;overflow=hidden;" vertex="1" parent="YQkR4Uo7yY8lCMuE5dBn-172">
          <mxGeometry x="59" width="59" height="25" as="geometry" />
        </mxCell>
        <mxCell id="YQkR4Uo7yY8lCMuE5dBn-175" value="26" style="shape=partialRectangle;html=1;whiteSpace=wrap;connectable=0;fillColor=none;top=0;left=0;bottom=0;right=0;overflow=hidden;" vertex="1" parent="YQkR4Uo7yY8lCMuE5dBn-172">
          <mxGeometry x="118" width="59" height="25" as="geometry" />
        </mxCell>
        <mxCell id="YQkR4Uo7yY8lCMuE5dBn-184" value="27" style="shape=partialRectangle;html=1;whiteSpace=wrap;connectable=0;fillColor=none;top=0;left=0;bottom=0;right=0;overflow=hidden;" vertex="1" parent="YQkR4Uo7yY8lCMuE5dBn-172">
          <mxGeometry x="177" width="59" height="25" as="geometry" />
        </mxCell>
        <mxCell id="YQkR4Uo7yY8lCMuE5dBn-187" value="28" style="shape=partialRectangle;html=1;whiteSpace=wrap;connectable=0;fillColor=none;top=0;left=0;bottom=0;right=0;overflow=hidden;" vertex="1" parent="YQkR4Uo7yY8lCMuE5dBn-172">
          <mxGeometry x="236" width="59" height="25" as="geometry" />
        </mxCell>
        <mxCell id="YQkR4Uo7yY8lCMuE5dBn-190" value="29" style="shape=partialRectangle;html=1;whiteSpace=wrap;connectable=0;fillColor=none;top=0;left=0;bottom=0;right=0;overflow=hidden;" vertex="1" parent="YQkR4Uo7yY8lCMuE5dBn-172">
          <mxGeometry x="295" width="59" height="25" as="geometry" />
        </mxCell>
        <mxCell id="YQkR4Uo7yY8lCMuE5dBn-193" value="30" style="shape=partialRectangle;html=1;whiteSpace=wrap;connectable=0;fillColor=none;top=0;left=0;bottom=0;right=0;overflow=hidden;" vertex="1" parent="YQkR4Uo7yY8lCMuE5dBn-172">
          <mxGeometry x="354" width="59" height="25" as="geometry" />
        </mxCell>
        <mxCell id="YQkR4Uo7yY8lCMuE5dBn-196" value="31" style="shape=partialRectangle;html=1;whiteSpace=wrap;connectable=0;fillColor=none;top=0;left=0;bottom=0;right=0;overflow=hidden;" vertex="1" parent="YQkR4Uo7yY8lCMuE5dBn-172">
          <mxGeometry x="413" width="59" height="25" as="geometry" />
        </mxCell>
        <mxCell id="YQkR4Uo7yY8lCMuE5dBn-199" value="1" style="shape=partialRectangle;html=1;whiteSpace=wrap;connectable=0;fillColor=none;top=0;left=0;bottom=0;right=0;overflow=hidden;" vertex="1" parent="YQkR4Uo7yY8lCMuE5dBn-172">
          <mxGeometry x="472" width="59" height="25" as="geometry" />
        </mxCell>
        <mxCell id="YQkR4Uo7yY8lCMuE5dBn-202" value="2" style="shape=partialRectangle;html=1;whiteSpace=wrap;connectable=0;fillColor=none;top=0;left=0;bottom=0;right=0;overflow=hidden;" vertex="1" parent="YQkR4Uo7yY8lCMuE5dBn-172">
          <mxGeometry x="531" width="59" height="25" as="geometry" />
        </mxCell>
        <mxCell id="YQkR4Uo7yY8lCMuE5dBn-176" value="" style="shape=partialRectangle;html=1;whiteSpace=wrap;collapsible=0;dropTarget=0;pointerEvents=0;fillColor=none;top=0;left=0;bottom=0;right=0;points=[[0,0.5],[1,0.5]];portConstraint=eastwest;" vertex="1" parent="YQkR4Uo7yY8lCMuE5dBn-171">
          <mxGeometry y="25" width="590" height="25" as="geometry" />
        </mxCell>
        <mxCell id="YQkR4Uo7yY8lCMuE5dBn-177" value="" style="shape=partialRectangle;html=1;whiteSpace=wrap;connectable=0;fillColor=#d5e8d4;top=0;left=0;bottom=0;right=0;overflow=hidden;strokeColor=#82b366;" vertex="1" parent="YQkR4Uo7yY8lCMuE5dBn-176">
          <mxGeometry width="59" height="25" as="geometry" />
        </mxCell>
        <mxCell id="YQkR4Uo7yY8lCMuE5dBn-178" value="" style="shape=partialRectangle;html=1;whiteSpace=wrap;connectable=0;fillColor=#dae8fc;top=0;left=0;bottom=0;right=0;overflow=hidden;strokeColor=#6c8ebf;" vertex="1" parent="YQkR4Uo7yY8lCMuE5dBn-176">
          <mxGeometry x="59" width="59" height="25" as="geometry" />
        </mxCell>
        <mxCell id="YQkR4Uo7yY8lCMuE5dBn-179" value="&lt;font color=&quot;#ff8000&quot;&gt;300&lt;/font&gt;/10000" style="shape=partialRectangle;html=1;whiteSpace=wrap;connectable=0;fillColor=#dae8fc;top=0;left=0;bottom=0;right=0;overflow=hidden;strokeColor=#6c8ebf;" vertex="1" parent="YQkR4Uo7yY8lCMuE5dBn-176">
          <mxGeometry x="118" width="59" height="25" as="geometry" />
        </mxCell>
        <mxCell id="YQkR4Uo7yY8lCMuE5dBn-185" style="shape=partialRectangle;html=1;whiteSpace=wrap;connectable=0;fillColor=#f8cecc;top=0;left=0;bottom=0;right=0;overflow=hidden;strokeColor=#b85450;" vertex="1" parent="YQkR4Uo7yY8lCMuE5dBn-176">
          <mxGeometry x="177" width="59" height="25" as="geometry" />
        </mxCell>
        <mxCell id="YQkR4Uo7yY8lCMuE5dBn-188" style="shape=partialRectangle;html=1;whiteSpace=wrap;connectable=0;fillColor=#f8cecc;top=0;left=0;bottom=0;right=0;overflow=hidden;strokeColor=#b85450;" vertex="1" parent="YQkR4Uo7yY8lCMuE5dBn-176">
          <mxGeometry x="236" width="59" height="25" as="geometry" />
        </mxCell>
        <mxCell id="YQkR4Uo7yY8lCMuE5dBn-191" style="shape=partialRectangle;html=1;whiteSpace=wrap;connectable=0;fillColor=none;top=0;left=0;bottom=0;right=0;overflow=hidden;" vertex="1" parent="YQkR4Uo7yY8lCMuE5dBn-176">
          <mxGeometry x="295" width="59" height="25" as="geometry" />
        </mxCell>
        <mxCell id="YQkR4Uo7yY8lCMuE5dBn-194" style="shape=partialRectangle;html=1;whiteSpace=wrap;connectable=0;fillColor=none;top=0;left=0;bottom=0;right=0;overflow=hidden;" vertex="1" parent="YQkR4Uo7yY8lCMuE5dBn-176">
          <mxGeometry x="354" width="59" height="25" as="geometry" />
        </mxCell>
        <mxCell id="YQkR4Uo7yY8lCMuE5dBn-197" style="shape=partialRectangle;html=1;whiteSpace=wrap;connectable=0;fillColor=none;top=0;left=0;bottom=0;right=0;overflow=hidden;" vertex="1" parent="YQkR4Uo7yY8lCMuE5dBn-176">
          <mxGeometry x="413" width="59" height="25" as="geometry" />
        </mxCell>
        <mxCell id="YQkR4Uo7yY8lCMuE5dBn-200" style="shape=partialRectangle;html=1;whiteSpace=wrap;connectable=0;fillColor=none;top=0;left=0;bottom=0;right=0;overflow=hidden;" vertex="1" parent="YQkR4Uo7yY8lCMuE5dBn-176">
          <mxGeometry x="472" width="59" height="25" as="geometry" />
        </mxCell>
        <mxCell id="YQkR4Uo7yY8lCMuE5dBn-203" style="shape=partialRectangle;html=1;whiteSpace=wrap;connectable=0;fillColor=none;top=0;left=0;bottom=0;right=0;overflow=hidden;" vertex="1" parent="YQkR4Uo7yY8lCMuE5dBn-176">
          <mxGeometry x="531" width="59" height="25" as="geometry" />
        </mxCell>
        <mxCell id="YQkR4Uo7yY8lCMuE5dBn-180" value="" style="shape=partialRectangle;html=1;whiteSpace=wrap;collapsible=0;dropTarget=0;pointerEvents=0;fillColor=none;top=0;left=0;bottom=0;right=0;points=[[0,0.5],[1,0.5]];portConstraint=eastwest;" vertex="1" parent="YQkR4Uo7yY8lCMuE5dBn-171">
          <mxGeometry y="50" width="590" height="26" as="geometry" />
        </mxCell>
        <mxCell id="YQkR4Uo7yY8lCMuE5dBn-181" value="" style="shape=partialRectangle;html=1;whiteSpace=wrap;connectable=0;fillColor=none;top=0;left=0;bottom=0;right=0;overflow=hidden;" vertex="1" parent="YQkR4Uo7yY8lCMuE5dBn-180">
          <mxGeometry width="59" height="26" as="geometry" />
        </mxCell>
        <mxCell id="YQkR4Uo7yY8lCMuE5dBn-182" value="" style="shape=partialRectangle;html=1;whiteSpace=wrap;connectable=0;fillColor=#dae8fc;top=0;left=0;bottom=0;right=0;overflow=hidden;strokeColor=#6c8ebf;" vertex="1" parent="YQkR4Uo7yY8lCMuE5dBn-180">
          <mxGeometry x="59" width="59" height="26" as="geometry" />
        </mxCell>
        <mxCell id="YQkR4Uo7yY8lCMuE5dBn-183" value="" style="shape=partialRectangle;html=1;whiteSpace=wrap;connectable=0;fillColor=#dae8fc;top=0;left=0;bottom=0;right=0;overflow=hidden;strokeColor=#6c8ebf;" vertex="1" parent="YQkR4Uo7yY8lCMuE5dBn-180">
          <mxGeometry x="118" width="59" height="26" as="geometry" />
        </mxCell>
        <mxCell id="YQkR4Uo7yY8lCMuE5dBn-186" value="&lt;font color=&quot;#ff8000&quot;&gt;0&lt;/font&gt;/3000" style="shape=partialRectangle;html=1;whiteSpace=wrap;connectable=0;fillColor=#dae8fc;top=0;left=0;bottom=0;right=0;overflow=hidden;strokeColor=#6c8ebf;" vertex="1" parent="YQkR4Uo7yY8lCMuE5dBn-180">
          <mxGeometry x="177" width="59" height="26" as="geometry" />
        </mxCell>
        <mxCell id="YQkR4Uo7yY8lCMuE5dBn-189" style="shape=partialRectangle;html=1;whiteSpace=wrap;connectable=0;fillColor=#f8cecc;top=0;left=0;bottom=0;right=0;overflow=hidden;strokeColor=#b85450;" vertex="1" parent="YQkR4Uo7yY8lCMuE5dBn-180">
          <mxGeometry x="236" width="59" height="26" as="geometry" />
        </mxCell>
        <mxCell id="YQkR4Uo7yY8lCMuE5dBn-192" style="shape=partialRectangle;html=1;whiteSpace=wrap;connectable=0;fillColor=#f8cecc;top=0;left=0;bottom=0;right=0;overflow=hidden;strokeColor=#b85450;" vertex="1" parent="YQkR4Uo7yY8lCMuE5dBn-180">
          <mxGeometry x="295" width="59" height="26" as="geometry" />
        </mxCell>
        <mxCell id="YQkR4Uo7yY8lCMuE5dBn-195" style="shape=partialRectangle;html=1;whiteSpace=wrap;connectable=0;fillColor=none;top=0;left=0;bottom=0;right=0;overflow=hidden;" vertex="1" parent="YQkR4Uo7yY8lCMuE5dBn-180">
          <mxGeometry x="354" width="59" height="26" as="geometry" />
        </mxCell>
        <mxCell id="YQkR4Uo7yY8lCMuE5dBn-198" style="shape=partialRectangle;html=1;whiteSpace=wrap;connectable=0;fillColor=none;top=0;left=0;bottom=0;right=0;overflow=hidden;" vertex="1" parent="YQkR4Uo7yY8lCMuE5dBn-180">
          <mxGeometry x="413" width="59" height="26" as="geometry" />
        </mxCell>
        <mxCell id="YQkR4Uo7yY8lCMuE5dBn-201" style="shape=partialRectangle;html=1;whiteSpace=wrap;connectable=0;fillColor=none;top=0;left=0;bottom=0;right=0;overflow=hidden;" vertex="1" parent="YQkR4Uo7yY8lCMuE5dBn-180">
          <mxGeometry x="472" width="59" height="26" as="geometry" />
        </mxCell>
        <mxCell id="YQkR4Uo7yY8lCMuE5dBn-204" style="shape=partialRectangle;html=1;whiteSpace=wrap;connectable=0;fillColor=none;top=0;left=0;bottom=0;right=0;overflow=hidden;" vertex="1" parent="YQkR4Uo7yY8lCMuE5dBn-180">
          <mxGeometry x="531" width="59" height="26" as="geometry" />
        </mxCell>
        <mxCell id="YQkR4Uo7yY8lCMuE5dBn-241" style="shape=partialRectangle;html=1;whiteSpace=wrap;collapsible=0;dropTarget=0;pointerEvents=0;fillColor=none;top=0;left=0;bottom=0;right=0;points=[[0,0.5],[1,0.5]];portConstraint=eastwest;" vertex="1" parent="YQkR4Uo7yY8lCMuE5dBn-171">
          <mxGeometry y="76" width="590" height="25" as="geometry" />
        </mxCell>
        <mxCell id="YQkR4Uo7yY8lCMuE5dBn-242" style="shape=partialRectangle;html=1;whiteSpace=wrap;connectable=0;fillColor=none;top=0;left=0;bottom=0;right=0;overflow=hidden;" vertex="1" parent="YQkR4Uo7yY8lCMuE5dBn-241">
          <mxGeometry width="59" height="25" as="geometry" />
        </mxCell>
        <mxCell id="YQkR4Uo7yY8lCMuE5dBn-243" style="shape=partialRectangle;html=1;whiteSpace=wrap;connectable=0;fillColor=none;top=0;left=0;bottom=0;right=0;overflow=hidden;" vertex="1" parent="YQkR4Uo7yY8lCMuE5dBn-241">
          <mxGeometry x="59" width="59" height="25" as="geometry" />
        </mxCell>
        <mxCell id="YQkR4Uo7yY8lCMuE5dBn-244" style="shape=partialRectangle;html=1;whiteSpace=wrap;connectable=0;fillColor=none;top=0;left=0;bottom=0;right=0;overflow=hidden;" vertex="1" parent="YQkR4Uo7yY8lCMuE5dBn-241">
          <mxGeometry x="118" width="59" height="25" as="geometry" />
        </mxCell>
        <mxCell id="YQkR4Uo7yY8lCMuE5dBn-245" style="shape=partialRectangle;html=1;whiteSpace=wrap;connectable=0;fillColor=#dae8fc;top=0;left=0;bottom=0;right=0;overflow=hidden;strokeColor=#6c8ebf;" vertex="1" parent="YQkR4Uo7yY8lCMuE5dBn-241">
          <mxGeometry x="177" width="59" height="25" as="geometry" />
        </mxCell>
        <mxCell id="YQkR4Uo7yY8lCMuE5dBn-246" style="shape=partialRectangle;html=1;whiteSpace=wrap;connectable=0;fillColor=#dae8fc;top=0;left=0;bottom=0;right=0;overflow=hidden;strokeColor=#6c8ebf;" vertex="1" parent="YQkR4Uo7yY8lCMuE5dBn-241">
          <mxGeometry x="236" width="59" height="25" as="geometry" />
        </mxCell>
        <mxCell id="YQkR4Uo7yY8lCMuE5dBn-247" value="&lt;font color=&quot;#ff8000&quot;&gt;50&lt;/font&gt;/6000" style="shape=partialRectangle;html=1;whiteSpace=wrap;connectable=0;fillColor=#dae8fc;top=0;left=0;bottom=0;right=0;overflow=hidden;strokeColor=#6c8ebf;" vertex="1" parent="YQkR4Uo7yY8lCMuE5dBn-241">
          <mxGeometry x="295" width="59" height="25" as="geometry" />
        </mxCell>
        <mxCell id="YQkR4Uo7yY8lCMuE5dBn-248" style="shape=partialRectangle;html=1;whiteSpace=wrap;connectable=0;fillColor=#f8cecc;top=0;left=0;bottom=0;right=0;overflow=hidden;strokeColor=#b85450;" vertex="1" parent="YQkR4Uo7yY8lCMuE5dBn-241">
          <mxGeometry x="354" width="59" height="25" as="geometry" />
        </mxCell>
        <mxCell id="YQkR4Uo7yY8lCMuE5dBn-249" style="shape=partialRectangle;html=1;whiteSpace=wrap;connectable=0;fillColor=#f8cecc;top=0;left=0;bottom=0;right=0;overflow=hidden;strokeColor=#b85450;" vertex="1" parent="YQkR4Uo7yY8lCMuE5dBn-241">
          <mxGeometry x="413" width="59" height="25" as="geometry" />
        </mxCell>
        <mxCell id="YQkR4Uo7yY8lCMuE5dBn-250" style="shape=partialRectangle;html=1;whiteSpace=wrap;connectable=0;fillColor=none;top=0;left=0;bottom=0;right=0;overflow=hidden;" vertex="1" parent="YQkR4Uo7yY8lCMuE5dBn-241">
          <mxGeometry x="472" width="59" height="25" as="geometry" />
        </mxCell>
        <mxCell id="YQkR4Uo7yY8lCMuE5dBn-251" style="shape=partialRectangle;html=1;whiteSpace=wrap;connectable=0;fillColor=none;top=0;left=0;bottom=0;right=0;overflow=hidden;" vertex="1" parent="YQkR4Uo7yY8lCMuE5dBn-241">
          <mxGeometry x="531" width="59" height="25" as="geometry" />
        </mxCell>
        <mxCell id="YQkR4Uo7yY8lCMuE5dBn-230" style="shape=partialRectangle;html=1;whiteSpace=wrap;collapsible=0;dropTarget=0;pointerEvents=0;fillColor=none;top=0;left=0;bottom=0;right=0;points=[[0,0.5],[1,0.5]];portConstraint=eastwest;" vertex="1" parent="YQkR4Uo7yY8lCMuE5dBn-171">
          <mxGeometry y="101" width="590" height="25" as="geometry" />
        </mxCell>
        <mxCell id="YQkR4Uo7yY8lCMuE5dBn-231" value="&lt;font color=&quot;#ff8000&quot;&gt;4999&lt;/font&gt;/6000" style="shape=partialRectangle;html=1;whiteSpace=wrap;connectable=0;fillColor=#f8cecc;top=0;left=0;bottom=0;right=0;overflow=hidden;strokeColor=#b85450;" vertex="1" parent="YQkR4Uo7yY8lCMuE5dBn-230">
          <mxGeometry width="59" height="25" as="geometry" />
        </mxCell>
        <mxCell id="YQkR4Uo7yY8lCMuE5dBn-232" style="shape=partialRectangle;html=1;whiteSpace=wrap;connectable=0;fillColor=#f8cecc;top=0;left=0;bottom=0;right=0;overflow=hidden;strokeColor=#b85450;" vertex="1" parent="YQkR4Uo7yY8lCMuE5dBn-230">
          <mxGeometry x="59" width="59" height="25" as="geometry" />
        </mxCell>
        <mxCell id="YQkR4Uo7yY8lCMuE5dBn-233" style="shape=partialRectangle;html=1;whiteSpace=wrap;connectable=0;fillColor=none;top=0;left=0;bottom=0;right=0;overflow=hidden;" vertex="1" parent="YQkR4Uo7yY8lCMuE5dBn-230">
          <mxGeometry x="118" width="59" height="25" as="geometry" />
        </mxCell>
        <mxCell id="YQkR4Uo7yY8lCMuE5dBn-234" style="shape=partialRectangle;html=1;whiteSpace=wrap;connectable=0;fillColor=none;top=0;left=0;bottom=0;right=0;overflow=hidden;" vertex="1" parent="YQkR4Uo7yY8lCMuE5dBn-230">
          <mxGeometry x="177" width="59" height="25" as="geometry" />
        </mxCell>
        <mxCell id="YQkR4Uo7yY8lCMuE5dBn-235" style="shape=partialRectangle;html=1;whiteSpace=wrap;connectable=0;fillColor=none;top=0;left=0;bottom=0;right=0;overflow=hidden;" vertex="1" parent="YQkR4Uo7yY8lCMuE5dBn-230">
          <mxGeometry x="236" width="59" height="25" as="geometry" />
        </mxCell>
        <mxCell id="YQkR4Uo7yY8lCMuE5dBn-236" style="shape=partialRectangle;html=1;whiteSpace=wrap;connectable=0;fillColor=none;top=0;left=0;bottom=0;right=0;overflow=hidden;" vertex="1" parent="YQkR4Uo7yY8lCMuE5dBn-230">
          <mxGeometry x="295" width="59" height="25" as="geometry" />
        </mxCell>
        <mxCell id="YQkR4Uo7yY8lCMuE5dBn-237" style="shape=partialRectangle;html=1;whiteSpace=wrap;connectable=0;fillColor=none;top=0;left=0;bottom=0;right=0;overflow=hidden;" vertex="1" parent="YQkR4Uo7yY8lCMuE5dBn-230">
          <mxGeometry x="354" width="59" height="25" as="geometry" />
        </mxCell>
        <mxCell id="YQkR4Uo7yY8lCMuE5dBn-238" style="shape=partialRectangle;html=1;whiteSpace=wrap;connectable=0;fillColor=none;top=0;left=0;bottom=0;right=0;overflow=hidden;" vertex="1" parent="YQkR4Uo7yY8lCMuE5dBn-230">
          <mxGeometry x="413" width="59" height="25" as="geometry" />
        </mxCell>
        <mxCell id="YQkR4Uo7yY8lCMuE5dBn-239" style="shape=partialRectangle;html=1;whiteSpace=wrap;connectable=0;fillColor=none;top=0;left=0;bottom=0;right=0;overflow=hidden;" vertex="1" parent="YQkR4Uo7yY8lCMuE5dBn-230">
          <mxGeometry x="472" width="59" height="25" as="geometry" />
        </mxCell>
        <mxCell id="YQkR4Uo7yY8lCMuE5dBn-240" style="shape=partialRectangle;html=1;whiteSpace=wrap;connectable=0;fillColor=none;top=0;left=0;bottom=0;right=0;overflow=hidden;" vertex="1" parent="YQkR4Uo7yY8lCMuE5dBn-230">
          <mxGeometry x="531" width="59" height="25" as="geometry" />
        </mxCell>
        <mxCell id="YQkR4Uo7yY8lCMuE5dBn-260" value="" style="strokeWidth=1;shadow=0;dashed=0;align=center;html=1;shape=mxgraph.mockup.forms.rrect;rSize=0;strokeColor=#999999;fillColor=#ffffff;recursiveResize=0;rounded=0;fontColor=#009900;" vertex="1" parent="1">
          <mxGeometry x="40" y="224" width="150" height="256" as="geometry" />
        </mxCell>
        <mxCell id="YQkR4Uo7yY8lCMuE5dBn-263" value="&lt;span style=&quot;color: rgb(102 , 102 , 102)&quot;&gt;Модель ФZ&lt;/span&gt;" style="strokeWidth=1;shadow=0;dashed=0;align=center;html=1;shape=mxgraph.mockup.forms.checkbox;rSize=0;resizable=0;fillColor=#aaaaaa;strokeColor=#444444;gradientColor=#666666;align=left;spacingLeft=4;fontSize=17;fontColor=#008cff;labelPosition=right;" vertex="1" parent="YQkR4Uo7yY8lCMuE5dBn-260">
          <mxGeometry x="8" y="67.5" width="15" height="15" as="geometry" />
        </mxCell>
        <mxCell id="YQkR4Uo7yY8lCMuE5dBn-270" value="&lt;span style=&quot;color: rgb(102 , 102 , 102)&quot;&gt;Модель ФY&lt;/span&gt;" style="strokeWidth=1;shadow=0;dashed=0;align=center;html=1;shape=mxgraph.mockup.forms.checkbox;rSize=0;resizable=0;fillColor=#aaaaaa;strokeColor=#444444;gradientColor=#666666;align=left;spacingLeft=4;fontSize=17;fontColor=#008cff;labelPosition=right;" vertex="1" parent="YQkR4Uo7yY8lCMuE5dBn-260">
          <mxGeometry x="8" y="40" width="15" height="15" as="geometry" />
        </mxCell>
        <mxCell id="YQkR4Uo7yY8lCMuE5dBn-269" value="&lt;span style=&quot;color: rgb(102 , 102 , 102) ; background-color: rgb(204 , 255 , 204)&quot;&gt;Модель ФX&lt;/span&gt;" style="strokeWidth=1;shadow=0;dashed=0;align=center;html=1;shape=mxgraph.mockup.forms.checkbox;rSize=0;resizable=0;fillColor=#aaaaaa;strokeColor=#444444;gradientColor=#666666;align=left;spacingLeft=4;fontSize=17;fontColor=#008cff;labelPosition=right;" vertex="1" parent="YQkR4Uo7yY8lCMuE5dBn-260">
          <mxGeometry x="8" y="10" width="15" height="15" as="geometry" />
        </mxCell>
        <mxCell id="YQkR4Uo7yY8lCMuE5dBn-273" value="&lt;font color=&quot;#ff0000&quot;&gt;Модель ФJ&lt;/font&gt;" style="strokeWidth=1;shadow=0;dashed=0;align=center;html=1;shape=mxgraph.mockup.forms.checkbox;rSize=0;resizable=0;fillColor=#aaaaaa;strokeColor=#444444;gradientColor=#666666;align=left;spacingLeft=4;fontSize=17;fontColor=#008cff;labelPosition=right;" vertex="1" parent="YQkR4Uo7yY8lCMuE5dBn-260">
          <mxGeometry x="8" y="90" width="15" height="15" as="geometry" />
        </mxCell>
        <mxCell id="YQkR4Uo7yY8lCMuE5dBn-351" value="" style="endArrow=classic;html=1;fontColor=#009900;" edge="1" parent="YQkR4Uo7yY8lCMuE5dBn-260" target="YQkR4Uo7yY8lCMuE5dBn-292">
          <mxGeometry width="50" height="50" relative="1" as="geometry">
            <mxPoint x="120" y="16" as="sourcePoint" />
            <mxPoint x="170" y="-34" as="targetPoint" />
          </mxGeometry>
        </mxCell>
        <mxCell id="YQkR4Uo7yY8lCMuE5dBn-277" value="" style="endArrow=none;dashed=1;html=1;dashPattern=1 3;strokeWidth=2;fontColor=#009900;exitX=0;exitY=0.5;exitDx=0;exitDy=0;" edge="1" parent="1" source="YQkR4Uo7yY8lCMuE5dBn-241" target="YQkR4Uo7yY8lCMuE5dBn-263">
          <mxGeometry width="50" height="50" relative="1" as="geometry">
            <mxPoint x="490" y="480" as="sourcePoint" />
            <mxPoint x="540" y="430" as="targetPoint" />
          </mxGeometry>
        </mxCell>
        <mxCell id="YQkR4Uo7yY8lCMuE5dBn-278" value="" style="endArrow=none;dashed=1;html=1;dashPattern=1 3;strokeWidth=2;fontColor=#009900;entryX=0.4;entryY=0.534;entryDx=0;entryDy=0;entryPerimeter=0;exitX=0;exitY=0.5;exitDx=0;exitDy=0;" edge="1" parent="1" source="YQkR4Uo7yY8lCMuE5dBn-230" target="YQkR4Uo7yY8lCMuE5dBn-273">
          <mxGeometry width="50" height="50" relative="1" as="geometry">
            <mxPoint x="490" y="480" as="sourcePoint" />
            <mxPoint x="540" y="430" as="targetPoint" />
          </mxGeometry>
        </mxCell>
        <mxCell id="YQkR4Uo7yY8lCMuE5dBn-280" value="" style="endArrow=none;dashed=1;html=1;dashPattern=1 3;strokeWidth=2;fontColor=#009900;exitX=0;exitY=0.5;exitDx=0;exitDy=0;" edge="1" parent="1" source="YQkR4Uo7yY8lCMuE5dBn-180" target="YQkR4Uo7yY8lCMuE5dBn-270">
          <mxGeometry width="50" height="50" relative="1" as="geometry">
            <mxPoint x="490" y="480" as="sourcePoint" />
            <mxPoint x="540" y="430" as="targetPoint" />
          </mxGeometry>
        </mxCell>
        <mxCell id="YQkR4Uo7yY8lCMuE5dBn-281" value="" style="endArrow=none;dashed=1;html=1;dashPattern=1 3;strokeWidth=2;fontColor=#009900;entryX=0.6;entryY=0.8;entryDx=0;entryDy=0;entryPerimeter=0;exitX=0;exitY=0.5;exitDx=0;exitDy=0;" edge="1" parent="1" source="YQkR4Uo7yY8lCMuE5dBn-176" target="YQkR4Uo7yY8lCMuE5dBn-269">
          <mxGeometry width="50" height="50" relative="1" as="geometry">
            <mxPoint x="490" y="480" as="sourcePoint" />
            <mxPoint x="540" y="430" as="targetPoint" />
          </mxGeometry>
        </mxCell>
        <mxCell id="YQkR4Uo7yY8lCMuE5dBn-282" value="" style="endArrow=none;dashed=1;html=1;dashPattern=1 3;strokeWidth=2;fontColor=#009900;" edge="1" parent="1" source="YQkR4Uo7yY8lCMuE5dBn-60" target="YQkR4Uo7yY8lCMuE5dBn-172">
          <mxGeometry width="50" height="50" relative="1" as="geometry">
            <mxPoint x="490" y="360" as="sourcePoint" />
            <mxPoint x="540" y="310" as="targetPoint" />
          </mxGeometry>
        </mxCell>
        <mxCell id="YQkR4Uo7yY8lCMuE5dBn-292" value="" style="strokeWidth=1;shadow=0;dashed=0;align=center;html=1;shape=mxgraph.mockup.forms.rrect;rSize=0;strokeColor=#999999;recursiveResize=0;rounded=0;sketch=0;fontColor=#009900;fillColor=#CCFFCC;" vertex="1" parent="1">
          <mxGeometry x="190" y="232.5" width="170" height="65" as="geometry" />
        </mxCell>
        <mxCell id="YQkR4Uo7yY8lCMuE5dBn-293" value="Линия 2" style="shape=ellipse;rSize=0;fillColor=#eeeeee;strokeColor=#999999;html=1;align=left;spacingLeft=4;fontSize=17;fontColor=#666666;labelPosition=right;gradientColor=#ffffff;" vertex="1" parent="YQkR4Uo7yY8lCMuE5dBn-292">
          <mxGeometry x="8" y="7.5" width="15" height="15" as="geometry" />
        </mxCell>
        <mxCell id="YQkR4Uo7yY8lCMuE5dBn-294" value="&lt;span style=&quot;background-color: rgb(179 , 179 , 179)&quot;&gt;Линия 4(ремонт)&lt;/span&gt;" style="shape=ellipse;rSize=0;fillColor=#eeeeee;strokeColor=#999999;gradientColor=#cccccc;html=1;align=left;spacingLeft=4;fontSize=17;fontColor=#666666;labelPosition=right;" vertex="1" parent="YQkR4Uo7yY8lCMuE5dBn-292">
          <mxGeometry x="8" y="37.5" width="15" height="15" as="geometry" />
        </mxCell>
        <mxCell id="YQkR4Uo7yY8lCMuE5dBn-299" value="&lt;table cellpadding=&quot;0&quot; cellspacing=&quot;0&quot; style=&quot;width: 100% ; height: 100%&quot;&gt;&lt;tbody&gt;&lt;tr&gt;&lt;td style=&quot;width: 85%&quot;&gt;3000&lt;br&gt;&lt;/td&gt;&lt;td style=&quot;width: 15%&quot;&gt;&lt;/td&gt;&lt;/tr&gt;&lt;/tbody&gt;&lt;/table&gt;" style="strokeWidth=1;shadow=0;dashed=0;align=center;html=1;shape=mxgraph.mockup.forms.spinner;strokeColor=#b85450;spinLayout=right;spinStyle=normal;adjStyle=triangle;fillColor=#f8cecc;fontSize=17;mainText=;html=1;overflow=fill;rounded=0;sketch=0;" vertex="1" parent="YQkR4Uo7yY8lCMuE5dBn-292">
          <mxGeometry x="100" width="70" height="30" as="geometry" />
        </mxCell>
        <mxCell id="YQkR4Uo7yY8lCMuE5dBn-301" value="" style="shape=ellipse;fillColor=#444444;strokeColor=none;html=1;" vertex="1" parent="YQkR4Uo7yY8lCMuE5dBn-292">
          <mxGeometry x="11" y="10.5" width="9" height="9" as="geometry" />
        </mxCell>
        <mxCell id="YQkR4Uo7yY8lCMuE5dBn-347" value="" style="group" vertex="1" connectable="0" parent="1">
          <mxGeometry x="230" y="300" width="160" height="132.5" as="geometry" />
        </mxCell>
        <mxCell id="YQkR4Uo7yY8lCMuE5dBn-286" value="" style="strokeWidth=1;shadow=0;dashed=0;align=center;html=1;shape=mxgraph.mockup.forms.rrect;rSize=0;strokeColor=#999999;recursiveResize=0;rounded=0;sketch=0;fontColor=#009900;fillColor=#CCFFCC;container=1;" vertex="1" parent="YQkR4Uo7yY8lCMuE5dBn-347">
          <mxGeometry width="160" height="132.5" as="geometry" />
        </mxCell>
        <mxCell id="YQkR4Uo7yY8lCMuE5dBn-287" value="&lt;span style=&quot;background-color: rgb(179 , 179 , 179)&quot;&gt;Петров (болеет)&lt;/span&gt;" style="shape=ellipse;rSize=0;strokeColor=#999999;gradientColor=#cccccc;html=1;align=left;spacingLeft=4;fontSize=17;fontColor=#666666;labelPosition=right;fillColor=none;" vertex="1" parent="YQkR4Uo7yY8lCMuE5dBn-347">
          <mxGeometry x="8" y="10" width="15" height="15" as="geometry" />
        </mxCell>
        <mxCell id="YQkR4Uo7yY8lCMuE5dBn-288" value="Сидоров" style="shape=ellipse;rSize=0;fillColor=#eeeeee;strokeColor=#999999;gradientColor=#cccccc;html=1;align=left;spacingLeft=4;fontSize=17;fontColor=#666666;labelPosition=right;" vertex="1" parent="YQkR4Uo7yY8lCMuE5dBn-347">
          <mxGeometry x="8" y="40" width="15" height="15" as="geometry" />
        </mxCell>
        <mxCell id="YQkR4Uo7yY8lCMuE5dBn-289" value="Иванов" style="shape=ellipse;rSize=0;fillColor=#aaaaaa;strokeColor=#444444;gradientColor=#666666;html=1;align=left;spacingLeft=4;fontSize=17;fontColor=#008cff;labelPosition=right;" vertex="1" parent="YQkR4Uo7yY8lCMuE5dBn-347">
          <mxGeometry x="8" y="70" width="15" height="15" as="geometry" />
        </mxCell>
        <mxCell id="YQkR4Uo7yY8lCMuE5dBn-290" value="" style="shape=ellipse;fillColor=#444444;strokeColor=none;html=1;" vertex="1" parent="YQkR4Uo7yY8lCMuE5dBn-289">
          <mxGeometry x="3" y="3" width="9" height="9" as="geometry" />
        </mxCell>
        <mxCell id="YQkR4Uo7yY8lCMuE5dBn-291" value="Васечкин" style="shape=ellipse;rSize=0;fillColor=#eeeeee;strokeColor=#999999;gradientColor=#cccccc;html=1;align=left;spacingLeft=4;fontSize=17;fontColor=#666666;labelPosition=right;" vertex="1" parent="YQkR4Uo7yY8lCMuE5dBn-347">
          <mxGeometry x="8" y="100" width="15" height="15" as="geometry" />
        </mxCell>
        <mxCell id="YQkR4Uo7yY8lCMuE5dBn-349" value="&lt;font color=&quot;#000000&quot;&gt;Модель ФХ на линии 2 в количестве &amp;nbsp;3000 штук произвести в смену 2 Иванову&amp;nbsp;&lt;/font&gt;" style="rounded=1;whiteSpace=wrap;html=1;sketch=0;fontColor=#009900;fillColor=#FFFFFF;verticalAlign=top;align=left;" vertex="1" parent="1">
          <mxGeometry x="398.5" y="362.5" width="410" height="70" as="geometry" />
        </mxCell>
        <mxCell id="YQkR4Uo7yY8lCMuE5dBn-350" value="Подтвердить" style="strokeWidth=1;shadow=0;dashed=0;align=center;html=1;shape=mxgraph.mockup.buttons.button;strokeColor=#666666;fontColor=#ffffff;mainText=;buttonStyle=round;fontSize=17;fontStyle=1;fillColor=#008cff;whiteSpace=wrap;rounded=0;sketch=0;" vertex="1" parent="1">
          <mxGeometry x="650" y="399" width="150" height="30" as="geometry" />
        </mxCell>
        <mxCell id="YQkR4Uo7yY8lCMuE5dBn-353" value="" style="endArrow=classic;html=1;fontColor=#009900;entryX=0.925;entryY=0.008;entryDx=0;entryDy=0;entryPerimeter=0;exitX=1.029;exitY=0.583;exitDx=0;exitDy=0;exitPerimeter=0;" edge="1" parent="1" source="YQkR4Uo7yY8lCMuE5dBn-299" target="YQkR4Uo7yY8lCMuE5dBn-286">
          <mxGeometry width="50" height="50" relative="1" as="geometry">
            <mxPoint x="370" y="245" as="sourcePoint" />
            <mxPoint x="420" y="195" as="targetPoint" />
          </mxGeometry>
        </mxCell>
      </root>
    </mxGraphModel>
  </diagram>
</mxfile>
